<?xml version="1.0" encoding="UTF-8"?>
<svg xmlns="http://www.w3.org/2000/svg" width="473" height="270" viewBox="0 0 473 270" fill="none">
  <g clip-path="url(#clip0_7289_9286)">
    <g clip-path="url(#clip1_7289_9286)">
      <path d="M355.909 189.7L363.117 173.799C364.529 170.668 364.98 169.984 366.466 169.605V168.542H358.952V169.605C361.427 170.144 361.704 171.396 360.554 174.061L357.656 180.963L354.074 172.838C353.317 171.047 353.419 170.013 356.054 169.707V168.527H346.021V169.707C347.201 170.013 347.667 170.508 348.686 172.648L355.05 186.38L353.987 188.666C353.375 190.005 352.807 190.996 352.152 191.563C351.7 190.005 350.812 189.161 349.443 189.161C348.075 189.161 346.895 190.078 346.895 191.869C346.895 193.66 348.351 195 350.055 195C352.516 195 354.045 193.777 355.909 189.7ZM345.73 184.894L345.162 183.671C344.129 184.123 343.211 184.356 342.41 184.356C340.619 184.356 340.153 183.438 340.153 182.186V170.712H345.002V168.542H340.153V164.989H339.469L332.611 169.488V170.712H335.392V183.176C335.392 185.652 336.804 186.991 339.585 186.991C341.77 186.991 343.896 186.263 345.73 184.894ZM331.242 185.433C328.883 185.084 328.533 184.589 328.533 182.492V167.887H326.669L321.063 171.542V172.386H323.772V182.492C323.772 184.589 323.393 185.084 321.063 185.433V186.613H331.242V185.433ZM325.825 165.018C327.427 165.018 328.723 163.722 328.723 162.077C328.723 160.621 327.616 159.441 326.131 159.441C324.456 159.441 323.189 160.737 323.189 162.339C323.189 163.839 324.296 165.018 325.825 165.018ZM319.156 181.007C319.156 177.454 316.214 176.347 313.477 175.473C310.768 174.6 308.905 174.017 308.905 172.037C308.905 170.974 309.706 169.984 311.264 169.984C313.215 169.984 314.918 171.163 316.986 173.493L317.976 173.041L316.52 168.309H315.909L315.224 168.877C314.161 168.426 312.938 168.149 311.642 168.149C307.594 168.149 304.973 170.479 304.973 173.988C304.973 177.541 307.914 178.56 310.652 179.478C313.36 180.395 315.224 180.934 315.224 182.943C315.224 184.195 314.278 185.156 312.443 185.156C309.895 185.156 307.944 183.482 305.614 180.497L304.58 180.875L306.065 186.831H306.72L307.827 186.03C309.079 186.642 310.492 186.977 312.064 186.977C315.952 186.991 319.156 184.705 319.156 181.007ZM299.28 185.433C296.804 185.055 296.455 184.516 296.455 182.157V174.308C297.212 172.94 297.94 171.949 298.712 171.25C298.712 172.736 299.746 173.697 301.042 173.697C302.337 173.697 303.59 172.663 303.59 170.683C303.59 169.008 302.643 167.974 300.954 167.974C299.09 167.974 297.634 169.532 296.265 171.746V167.887H294.591L289.058 171.513V172.357H291.693V182.506C291.693 184.603 291.344 185.142 289.174 185.448V186.627H299.28V185.433ZM275.414 175.051C275.414 171.964 276.71 170.129 279.229 170.129C280.976 170.129 282.083 171.381 282.549 173.871L275.457 176.318C275.414 175.895 275.414 175.473 275.414 175.051ZM287.339 183.176L286.305 182.375C285.272 183.555 283.714 184.356 281.922 184.356C278.413 184.356 276.433 181.691 275.705 178.211L287.15 174.396C286.917 170.348 283.947 168.149 280.175 168.149C274.875 168.149 270.987 172.415 270.987 177.716C270.987 182.972 274.336 186.977 280.248 186.977C283.874 186.991 286.043 185.389 287.339 183.176ZM267.361 173.799C268.774 170.668 269.225 169.984 270.71 169.605V168.542H263.197V169.605C265.672 170.144 265.949 171.396 264.798 174.061L261.901 180.963L258.319 172.838C257.561 171.047 257.663 170.013 260.299 169.707V168.527H250.266V169.707C251.446 170.013 251.941 170.508 252.931 172.648L259.454 186.802H261.435L267.361 173.799ZM249.931 185.433C247.572 185.084 247.223 184.589 247.223 182.492V167.887H245.359L239.753 171.542V172.386H242.461V182.492C242.461 184.589 242.083 185.084 239.753 185.433V186.613H249.931V185.433ZM244.514 165.018C246.116 165.018 247.412 163.722 247.412 162.077C247.412 160.621 246.305 159.441 244.82 159.441C243.146 159.441 241.879 160.737 241.879 162.339C241.893 163.839 243 165.018 244.514 165.018ZM225.264 185.433C223.095 185.127 222.745 184.589 222.745 182.492V173.682C224.653 171.964 226.211 171.134 227.594 171.134C229.458 171.134 229.997 172.08 229.997 173.799V182.492C229.997 184.589 229.647 185.127 227.478 185.433V186.613H237.277V185.433C235.108 185.127 234.758 184.589 234.758 182.492V173.376C234.758 170.318 233.462 168.149 229.604 168.149C227.245 168.149 224.915 169.605 222.629 171.542V167.887H220.881L215.348 171.513V172.357H217.984V182.506C217.984 184.603 217.634 185.142 215.465 185.448V186.627H225.264V185.433ZM183.692 163.009V174.454C183.692 181.851 187.55 187.006 197.263 187.006C206.975 187.006 210.834 181.851 210.834 174.614V165.426C210.834 160.97 212.086 159.82 214.271 159.208V158.029H205.039V159.208C207.208 159.82 208.475 160.956 208.475 165.426V174.614C208.475 181.065 205.082 184.035 198.675 184.035C192.312 184.035 188.876 181.065 188.876 174.614V163.023C188.876 160.126 189.72 159.63 192.123 159.281V158.029H180.532V159.281C182.935 159.616 183.692 160.111 183.692 163.009ZM403.845 144.108C401.675 143.802 401.325 143.264 401.325 141.167V132.372C403.233 130.653 404.791 129.823 406.174 129.823C408.038 129.823 408.577 130.77 408.577 132.488V141.181C408.577 143.278 408.228 143.817 406.058 144.123V145.302H415.858V144.123C413.688 143.817 413.339 143.278 413.339 141.181V132.066C413.339 129.008 412.043 126.838 408.184 126.838C405.825 126.838 403.495 128.294 401.209 130.231V126.576H399.462L393.928 130.202V131.047H396.564V141.196C396.564 143.293 396.214 143.831 394.045 144.137V145.317H403.845V144.108ZM388.672 144.108C386.196 143.729 385.847 143.191 385.847 140.832V132.983C386.604 131.614 387.332 130.624 388.104 129.925C388.104 131.411 389.138 132.372 390.434 132.372C391.73 132.372 392.982 131.338 392.982 129.357C392.982 127.683 392.035 126.649 390.346 126.649C388.482 126.649 387.026 128.207 385.657 130.42V126.562H383.983L378.45 130.187V131.032H381.085V141.181C381.085 143.278 380.736 143.817 378.566 144.123V145.302H388.672V144.108ZM364.791 133.74C364.791 130.653 366.087 128.819 368.606 128.819C370.354 128.819 371.46 130.071 371.926 132.561L364.835 135.007C364.791 134.585 364.791 134.163 364.791 133.74ZM376.731 141.866L375.698 141.065C374.664 142.244 373.106 143.045 371.315 143.045C367.805 143.045 365.825 140.38 365.097 136.9L376.542 133.1C376.309 129.052 373.339 126.853 369.567 126.853C364.267 126.853 360.379 131.119 360.379 136.42C360.379 141.676 363.728 145.681 369.64 145.681C373.266 145.681 375.435 144.079 376.731 141.866ZM359.112 143.584L358.544 142.361C357.51 142.812 356.593 143.045 355.792 143.045C354.001 143.045 353.535 142.128 353.535 140.875V129.401H358.384V127.231H353.535V123.679H352.851L345.992 128.178V129.401H348.774V141.866C348.774 144.341 350.186 145.681 352.967 145.681C355.151 145.681 357.277 144.953 359.112 143.584ZM344.696 139.696C344.696 136.143 341.755 135.036 339.017 134.163C336.309 133.289 334.445 132.707 334.445 130.726C334.445 129.663 335.246 128.673 336.804 128.673C338.755 128.673 340.459 129.853 342.527 132.182L343.517 131.731L342.061 126.999H341.449L340.765 127.566C339.702 127.115 338.479 126.838 337.183 126.838C333.135 126.838 330.514 129.168 330.514 132.677C330.514 136.23 333.455 137.25 336.193 138.167C338.901 139.084 340.765 139.623 340.765 141.633C340.765 142.885 339.818 143.846 337.984 143.846C335.435 143.846 333.484 142.171 331.154 139.186L330.12 139.565L331.606 145.521H332.261L333.368 144.72C334.62 145.331 336.032 145.666 337.605 145.666C341.493 145.681 344.696 143.395 344.696 139.696ZM315.341 140.409C315.341 138.458 316.214 137.555 320.685 136.332V141.866C319.622 142.71 318.661 143.089 317.714 143.089C316.214 143.089 315.341 142.288 315.341 140.409ZM323.728 145.521C325.374 145.521 327.121 144.763 328.271 143.962L327.922 142.899C326.058 143.249 325.374 142.972 325.374 141.72V131.542C325.374 128.484 324.034 126.853 319.724 126.853C314.875 126.853 311.336 129.445 311.336 131.891C311.336 133.071 312.137 134.061 313.506 134.061C315.064 134.061 315.836 133.027 316.054 132.008C316.287 130.828 315.909 129.954 315.326 129.459C316.273 129.008 317.234 128.775 318.224 128.775C319.869 128.775 320.67 129.343 320.67 130.828V134.643C313.841 136.318 310.71 137.803 310.71 141.429C310.71 144.21 312.501 145.695 315.326 145.695C317.117 145.695 319.185 144.938 320.932 143.555C321.209 144.807 322.083 145.521 323.728 145.521ZM296.688 133.74C296.688 130.653 297.984 128.819 300.503 128.819C302.25 128.819 303.357 130.071 303.823 132.561L296.731 135.007C296.688 134.585 296.688 134.163 296.688 133.74ZM308.628 141.866L307.594 141.065C306.56 142.244 305.002 143.045 303.211 143.045C299.702 143.045 297.722 140.38 296.993 136.9L308.439 133.085C308.206 129.037 305.235 126.838 301.464 126.838C296.163 126.838 292.276 131.105 292.276 136.405C292.276 141.662 295.625 145.666 301.537 145.666C305.162 145.681 307.332 144.079 308.628 141.866ZM278.268 144.108C276.098 143.802 275.748 143.264 275.748 141.167V132.313C277.583 130.639 278.996 129.794 280.597 129.794C282.461 129.794 283 130.741 283 132.459V141.152C283 143.249 282.651 143.788 280.481 144.094V145.273H290.281V144.094C288.111 143.788 287.762 143.249 287.762 141.152V132.037C287.762 128.979 286.466 126.809 282.607 126.809C280.277 126.809 277.991 128.178 275.748 130.086V115.015H274.336L268.191 119.019V119.863H270.972V141.181C270.972 143.278 270.623 143.817 268.453 144.123V145.302H278.253V144.108H278.268ZM267.332 143.584L266.764 142.361C265.73 142.812 264.813 143.045 264.012 143.045C262.221 143.045 261.755 142.128 261.755 140.875V129.401H266.604V127.231H261.755V123.679H261.071L254.212 128.178V129.401H256.993V141.866C256.993 144.341 258.406 145.681 261.187 145.681C263.357 145.681 265.497 144.953 267.332 143.584ZM248.635 144.108C246.16 143.729 245.81 143.191 245.81 140.832V132.983C246.568 131.614 247.296 130.624 248.067 129.925C248.067 131.411 249.101 132.372 250.397 132.372C251.693 132.372 252.945 131.338 252.945 129.357C252.945 127.683 251.999 126.649 250.31 126.649C248.446 126.649 246.99 128.207 245.621 130.42V126.562H243.947L238.413 130.187V131.032H241.049V141.181C241.049 143.278 240.699 143.817 238.53 144.123V145.302H248.635V144.108ZM221.1 134.308C221.1 130.872 222.585 128.702 225.716 128.702C229.764 128.702 230.943 133.653 230.943 138.196C230.943 141.633 229.458 143.802 226.327 143.802C222.294 143.802 221.1 138.851 221.1 134.308ZM235.719 136.027C235.719 131.032 232.37 126.838 226.225 126.838C220.051 126.838 216.353 131.294 216.353 136.493C216.353 141.487 219.702 145.681 225.847 145.681C232.006 145.681 235.719 141.21 235.719 136.027ZM210.849 124.086C210.849 119.63 212.101 118.48 214.285 117.869V116.689H205.053V117.869C207.223 118.48 208.49 119.616 208.49 124.086V137.512L189.036 117.883C187.973 116.82 187.55 116.704 186.866 116.704H179.658V117.883C181.216 118.029 182.134 118.64 183.925 120.359C184.493 120.897 185.031 121.538 185.031 122.616V137.905C185.031 142.361 183.779 143.511 181.595 144.123V145.302H190.827V144.123C188.657 143.511 187.39 142.375 187.39 137.905V123.489L209.276 145.491H210.834V124.086H210.849Z" fill="black"></path>
      <path d="M103.765 75C71.8609 75 46 100.861 46 132.765C46 164.669 71.8609 190.53 103.765 190.53C135.669 190.53 161.53 164.669 161.53 132.765C161.53 100.861 135.654 75 103.765 75ZM143.546 172.546C132.917 183.176 118.792 189.03 103.765 189.03C88.7375 189.03 74.613 183.176 63.9833 172.546C53.3535 161.917 47.4998 147.792 47.4998 132.765C47.4998 117.738 53.3535 103.613 63.9833 92.9833C74.613 82.3535 88.7375 76.4998 103.765 76.4998C118.792 76.4998 132.917 82.3535 143.546 92.9833C154.176 103.613 160.03 117.738 160.03 132.765C160.015 147.792 154.162 161.917 143.546 172.546Z" fill="black"></path>
      <path d="M103.765 78.5093C73.7981 78.5093 49.5098 102.798 49.5098 132.765C49.5098 162.732 73.7981 187.02 103.765 187.02C133.733 187.02 158.021 162.732 158.021 132.765C158.021 102.798 133.718 78.5093 103.765 78.5093ZM141.698 170.697C131.563 180.832 118.094 186.409 103.765 186.409C89.437 186.409 75.9677 180.832 65.833 170.697C55.6983 160.562 50.1068 147.093 50.1068 132.765C50.1068 118.436 55.6838 104.967 65.8185 94.8325C75.9532 84.6978 89.437 79.1063 103.765 79.1063C118.094 79.1063 131.563 84.6833 141.698 94.818C151.832 104.953 157.409 118.422 157.409 132.75C157.409 147.093 151.832 160.562 141.698 170.697Z" fill="black"></path>
      <path d="M103.765 91.3524C80.9328 91.3524 62.3525 109.933 62.3525 132.765C62.3525 155.597 80.9328 174.177 103.765 174.177C126.597 174.177 145.177 155.597 145.177 132.765C145.177 109.933 126.597 91.3524 103.765 91.3524ZM103.765 173.58C81.224 173.58 62.9496 155.306 62.9496 132.765C62.9496 110.224 81.224 91.9494 103.765 91.9494C126.306 91.9494 144.58 110.224 144.58 132.765C144.58 155.306 126.306 173.58 103.765 173.58Z" fill="black"></path>
      <path d="M103.765 93.9589C82.3598 93.9589 64.959 111.374 64.959 132.765C64.959 154.155 82.3743 171.571 103.765 171.571C125.156 171.571 142.571 154.155 142.571 132.765C142.571 111.374 125.156 93.9589 103.765 93.9589ZM108.658 102.434C109.036 103.22 109.386 103.963 109.386 104.865C109.386 105.011 109.371 105.157 109.357 105.273C109.357 105.317 109.342 105.36 109.327 105.404C109.313 105.477 109.298 105.564 109.269 105.637C109.196 105.855 109.094 106.045 108.949 106.205C108.672 106.511 108.25 106.671 107.711 106.671C107.274 106.671 106.91 106.584 106.634 106.394C106.663 106.321 106.706 106.249 106.735 106.161C106.765 106.103 106.779 106.03 106.794 105.972C106.808 105.943 106.808 105.914 106.823 105.885L106.867 105.71C106.881 105.652 106.881 105.593 106.896 105.55C106.896 105.506 106.91 105.448 106.91 105.404C106.925 105.288 106.925 105.171 106.925 105.055C106.881 104.297 106.575 103.598 106.153 102.914C106.502 101.545 107.216 100.206 107.959 99.2446C107.842 100.599 108.235 101.56 108.658 102.434ZM109.648 103.322C109.808 102.812 109.939 102.317 109.939 101.866C110.798 102.798 111.191 103.7 111.191 104.676C111.191 104.836 111.177 104.967 111.162 105.113C111.162 105.157 111.148 105.186 111.148 105.229C111.133 105.346 111.118 105.448 111.089 105.55C111.075 105.593 111.06 105.637 111.046 105.695C111.016 105.768 111.002 105.826 110.973 105.899C110.944 105.957 110.929 106.001 110.9 106.045C110.885 106.074 110.856 106.118 110.842 106.147C110.784 106.249 110.711 106.336 110.638 106.409L110.594 106.452C110.318 106.715 109.968 106.846 109.517 106.846C109.429 106.846 109.357 106.831 109.284 106.817C109.444 106.656 109.56 106.452 109.662 106.234C109.735 106.088 109.779 105.928 109.822 105.768L109.866 105.593C109.881 105.535 109.881 105.462 109.895 105.404C109.91 105.258 109.924 105.098 109.924 104.938C109.968 104.341 109.837 103.817 109.648 103.322ZM124.602 154.054C125.884 154.054 127.136 153.558 127.966 152.728C128.519 152.175 128.854 151.52 128.942 150.792C129.087 150.85 129.233 150.937 129.364 151.054C129.378 151.068 129.393 151.068 129.407 151.068C129.422 151.068 129.437 151.054 129.437 151.039C129.713 150.209 129.509 149.408 128.796 148.433C128.097 147.472 126.685 146.889 125.025 146.86H124.908C122.957 146.86 121.981 147.719 121.501 148.433C120.831 149.423 120.845 150.602 121.137 151.258C121.137 151.272 121.151 151.287 121.18 151.287C121.195 151.287 121.209 151.287 121.224 151.272C121.37 151.098 121.588 150.894 121.806 150.763C122.884 151.68 124.559 151.811 125.84 151.622C126.495 151.52 126.99 151.272 127.223 150.908C127.383 150.661 127.413 150.369 127.325 150.049C127.136 149.379 126 149.146 125.272 149.277C124.588 149.394 124.005 149.656 123.015 150.661C122.986 150.69 122.942 150.704 122.913 150.69C122.884 150.675 122.884 150.661 122.884 150.632C122.84 150.02 122.869 149.263 122.884 148.899C123.219 148.389 124.195 147.85 125.199 147.85H125.228C126.073 147.865 126.772 148.025 127.121 148.302C127.369 148.506 127.704 149.19 127.922 149.729C128.243 150.573 128.184 151.083 127.675 151.797C127.209 152.437 126.015 153.136 124.457 153.136C122.986 153.136 121.923 152.816 120.933 152.073C120.307 151.345 120.248 150.646 120.612 147.938C121.064 144.603 120.962 140.555 120.7 137.687C120.438 134.862 119.884 131.746 119.477 129.896C119.316 129.168 119.185 128.586 119.171 128.411C119.185 127.581 119.52 126.824 120.103 126.241C120.787 125.586 121.734 125.251 122.84 125.266C124.719 125.295 125.84 125.906 126.175 127.071C126.219 127.232 126.233 127.93 126.262 128.746C126.335 130.784 126.437 134.192 127.005 138.254C127.879 144.53 128.912 146.846 129.597 148.375C130.004 149.277 130.267 149.874 130.339 150.879C130.398 151.855 130.106 152.685 129.451 153.384C128.243 154.651 125.84 155.349 122.869 155.291C122.141 155.277 121.457 155.248 120.787 155.204C120.845 154.84 120.904 154.476 120.962 154.097C120.976 153.995 120.991 153.835 120.918 153.777C120.845 153.719 120.685 153.762 120.583 153.791C119.651 154.155 118.807 154.534 118.035 154.956C116.506 154.782 115.108 154.563 113.725 154.345C110.9 153.893 108.235 153.486 104.624 153.486C99.3965 153.486 94.8825 154.097 91.1985 154.723C89.9608 153.762 88.5629 153.224 87.0777 152.918C87.4271 152.437 87.6601 151.884 87.7766 151.229C87.9222 150.413 87.7912 149.248 87.631 147.617C87.3689 145.04 87.2961 142.055 87.762 137.774C88.1989 133.77 88.6357 131.265 88.9124 130.042C88.9706 129.809 89.0143 129.62 89.0726 129.459C91.0092 129.241 92.8439 128.964 94.6204 128.688C97.5618 128.236 100.343 127.814 102.76 127.814C107.289 127.814 110.711 128.294 113.739 128.731C115.56 128.993 117.147 129.212 118.719 129.299C118.763 129.503 118.821 129.736 118.894 130.013C119.389 131.716 119.826 134.949 120.059 137.73C120.292 140.555 120.321 144.574 119.87 147.85C119.404 151.229 119.579 151.709 120.438 152.641C121.472 153.748 123.132 154.01 124.311 154.039L124.602 154.054ZM132.815 118.946C135.174 120.912 136.455 123.446 136.426 125.921C136.418 127.331 135.975 128.703 135.159 129.853C134.839 130.115 134.548 130.406 134.271 130.697C134.679 128.396 134.766 124.873 134.271 123.111C134.256 123.052 134.198 123.023 134.154 123.038C134.096 123.052 134.067 123.096 134.082 123.154C134.329 124.567 134.417 127.115 133.456 131.309C133.135 130.144 132.64 129.066 132.101 128.091C131.766 126.212 132.13 124.479 132.465 122.892C132.727 121.582 132.931 120.14 132.815 118.946ZM135.64 138.968C135.611 138.924 135.552 138.924 135.509 138.953C133.863 140.075 131.825 142.521 130.572 144.428C131.155 143.234 131.563 141.822 131.548 140.264C131.548 140.177 131.548 140.089 131.533 140.002C131.737 139.696 131.956 139.419 132.218 139.157C132.742 138.633 133.776 138.007 134.883 137.366C136.178 136.594 137.635 135.735 138.639 134.789C138.363 136.755 137.547 140.744 135.159 143.147C135.072 143.176 134.984 143.205 134.897 143.22C133.572 143.598 132.32 143.962 131.33 144.443C133.077 141.909 134.082 140.672 135.64 139.114C135.654 139.092 135.662 139.067 135.662 139.041C135.662 139.015 135.654 138.99 135.64 138.968ZM136.674 135.59C136.004 136.041 135.29 136.463 134.606 136.871C134.475 136.944 134.358 137.017 134.227 137.104C134.082 137.162 133.951 137.221 133.79 137.279C134.591 135.284 135.45 133.624 136.644 131.775C136.674 131.731 136.659 131.673 136.615 131.644C136.572 131.614 136.513 131.614 136.484 131.658C135.581 132.692 134.533 134.032 133.354 136.915C133.354 136.886 133.339 136.871 133.339 136.842C133.878 135.328 133.936 133.828 133.689 132.401C134.344 131.076 135.538 130.187 136.877 129.168C137.533 128.673 138.232 127.887 138.814 127.304C139.105 130.595 138.989 133.507 136.674 135.59ZM131.868 138.72L131.839 138.75C131.766 138.822 131.694 138.91 131.621 138.997C131.679 136.711 131.417 132.881 130.602 130.712C130.592 130.69 130.576 130.671 130.554 130.661C130.533 130.65 130.508 130.647 130.485 130.653C130.441 130.668 130.398 130.712 130.412 130.77C130.82 132.998 130.951 134.789 130.98 137.235C130.543 136.085 129.859 134.993 128.942 133.93C128.709 131.964 128.927 130.086 129.174 128.236C129.306 127.188 129.437 126.183 129.48 125.207C131.519 127.639 135.349 133.551 131.868 138.72ZM130.98 140.264C131.009 142.448 130.136 144.356 129.16 145.652C129.014 145.215 128.869 144.734 128.723 144.166C128.927 141.837 128.942 139.303 128.636 138.182C128.621 138.138 128.577 138.094 128.519 138.109C128.476 138.109 128.432 138.153 128.432 138.211C128.476 139.944 128.432 141.298 128.33 142.506C128.082 141.327 127.82 139.9 127.587 138.167C127.485 137.41 127.398 136.682 127.311 135.983C127.544 135.109 127.718 134.265 127.704 133.435C129.772 135.24 130.966 137.818 130.98 140.264ZM118.545 156.675C118.501 156.645 118.443 156.645 118.414 156.675C117.394 157.708 115.589 159.66 113.958 161.756C114.424 160.708 114.773 159.47 114.948 157.985C116.259 156.456 118.108 155.218 120.467 154.301C119.943 157.81 118.588 160.504 116.375 162.47C115.618 162.426 114.832 162.426 114.06 162.557C114.788 161.582 115.589 160.592 116.361 159.63C117.176 158.611 117.948 157.65 118.559 156.806C118.588 156.762 118.588 156.704 118.545 156.675ZM111.41 160.475C111.366 160.46 111.308 160.475 111.279 160.533C110.478 162.412 109.255 164.13 107.536 165.775C107.245 160.81 109.954 159.135 112.822 157.213C113.375 156.835 113.958 156.456 114.511 156.048C114.424 159.601 113.39 164.698 108.09 166.241C109.75 164.115 110.769 162.776 111.468 160.592C111.482 160.548 111.468 160.49 111.41 160.475ZM107.653 154.199C109.182 154.301 110.58 154.49 111.948 154.694L112.225 156.966C110.565 158.014 108.92 159.135 107.915 160.926L107.653 154.199ZM120.627 155.786C121.326 155.83 122.054 155.859 122.826 155.874H122.942C122.098 156.558 121.151 157.257 120.015 157.985C120.263 157.301 120.467 156.558 120.627 155.786ZM123.685 155.859C124.719 155.83 125.68 155.714 126.524 155.51C126.233 155.932 125.913 156.325 125.563 156.718C124.034 156.922 122.636 157.286 121.384 157.825C122.258 157.17 123.044 156.514 123.685 155.859ZM102.687 154.112C102.964 154.097 103.241 154.097 103.532 154.097L103.648 163.242C103.648 163.3 103.692 163.344 103.75 163.344C103.809 163.344 103.852 163.3 103.852 163.242L103.969 154.083H104.813L104.61 160.548C104.61 160.606 104.653 160.65 104.711 160.65C104.77 160.65 104.813 160.606 104.813 160.562L105.192 154.083C105.469 154.083 105.731 154.083 105.993 154.097L105.308 164.96H102.207L101.523 154.155C101.785 154.141 102.032 154.126 102.294 154.126L102.658 160.781C102.658 160.839 102.702 160.883 102.76 160.883C102.818 160.883 102.862 160.839 102.862 160.781L102.687 154.112ZM102.585 165.44H104.93C105.774 165.44 105.935 165.528 106.066 165.601C106.27 165.717 106.328 165.834 106.328 166.139C106.328 166.445 106.27 166.562 106.066 166.678C105.949 166.751 105.789 166.838 105.017 166.838H102.527C101.755 166.838 101.595 166.736 101.464 166.678C101.26 166.562 101.202 166.445 101.202 166.139C101.202 165.834 101.26 165.717 101.464 165.601C101.595 165.528 101.741 165.44 102.585 165.44ZM96.0038 160.228C96.5717 161.087 98.1588 163.839 99.2364 166.037C99.2073 166.023 99.1927 166.023 99.1636 166.008C98.1588 164.975 97.125 164.305 96.1057 163.882C93.6157 161.276 93.441 157.927 93.4555 156.048C94.0525 156.602 94.7224 157.111 95.3776 157.606C97.8822 159.514 100.474 161.232 99.979 166.023C99.8043 165.673 99.5713 165.28 99.2509 164.742C99.0762 164.45 98.8723 164.101 98.6394 163.693C98.0278 162.63 96.892 160.635 96.1348 160.096C96.0911 160.067 96.0474 160.067 96.0038 160.111C95.9892 160.14 95.9746 160.198 96.0038 160.228ZM88.7085 160.417C89.6841 161.494 91.0675 162.412 92.6983 163.111C92.0722 163.067 91.4461 163.052 90.849 163.038C90.1792 163.023 89.524 163.009 88.9124 162.936C87.1068 162.033 85.7089 160.693 84.7042 158.873C87.9222 158.466 90.7908 158.713 93.5575 160.635C93.8778 161.596 94.3146 162.455 94.868 163.227C92.2178 162.485 90.2083 161.232 88.8541 160.271C88.8105 160.242 88.7522 160.242 88.7231 160.286C88.6794 160.315 88.6794 160.373 88.7085 160.417ZM74.6423 147.341C75.2539 147.778 76.0256 148.535 76.7682 149.496C76.6226 150.02 76.5498 150.544 76.5935 151.214C76.6081 151.52 76.6517 151.826 76.7245 152.131C76.5498 152.117 76.3896 152.117 76.2149 152.102C75.3121 151.622 74.5403 150.879 73.7832 149.802C73.39 149.248 73.0405 148.622 72.6765 147.952C72.1377 146.977 71.5261 145.899 70.6816 144.88C71.1039 144.953 71.5698 145.011 72.0358 145.069C74.0161 145.331 76.2731 145.637 77.7584 146.933C77.6128 147.282 77.4817 147.603 77.3652 147.894C77.2051 148.273 77.074 148.608 76.9575 148.928C76.2586 148.142 75.516 147.545 74.7588 147.151C74.7151 147.122 74.6568 147.137 74.6277 147.195C74.584 147.253 74.5986 147.312 74.6423 147.341ZM78.6903 138.604C78.6321 138.589 78.5884 138.618 78.5738 138.662C77.9768 140.337 77.3216 142.667 77.5254 146.016C74.3656 140.992 77.4089 136.303 79.8552 133.682C79.9572 134.541 80.161 135.415 80.3649 136.332C80.263 137.046 80.1465 137.803 80.0008 138.589C79.3165 142.157 78.6612 144.414 78.0933 145.972C77.8895 143.861 78.0933 141.429 78.7486 138.72C78.7777 138.677 78.7486 138.618 78.6903 138.604ZM78.8359 133.988C77.9186 135.051 77.2342 136.085 76.7391 137.06L76.6954 137.104C77.1031 134.731 77.4817 131.178 77.2051 129.794C77.1905 129.736 77.1468 129.707 77.0886 129.707C77.0303 129.722 77.0012 129.765 77.0012 129.823C77.1323 131.047 76.7537 134.017 76.1421 136.755C76.0547 136.638 75.9674 136.522 75.8946 136.405C75.647 135.59 75.2684 134.833 74.7733 134.148C74.5403 133.173 74.686 132.241 75.0937 131.003C75.3267 130.289 75.5742 129.984 75.88 128.964C76.244 127.785 76.6809 126.139 76.943 124.8C77.0012 124.916 77.0449 125.033 77.1031 125.149C78.3117 127.785 79.797 131.003 78.8359 133.988ZM74.5695 130.843C74.2928 131.687 74.1181 132.415 74.1181 133.1C73.0988 130.755 72.5746 128.411 72.3707 125.455C72.3707 125.397 72.327 125.368 72.2688 125.368C72.2251 125.368 72.1668 125.411 72.1668 125.455C71.8611 127.843 72.4872 130.581 73.2298 132.546C72.8247 132.229 72.3964 131.941 71.9484 131.687C69.109 127.523 71.1912 121.873 72.3853 119.441C72.6474 120.329 72.9968 121.756 73.3609 122.703C74.1763 124.814 75.0354 127.028 75.0209 129.692C74.8753 130.1 74.7151 130.391 74.5695 130.843ZM75.7198 140.031C74.6132 137.92 72.4726 134.672 70.8272 133.318C70.7835 133.289 70.7253 133.289 70.6962 133.318C70.6525 133.362 70.6525 133.42 70.6962 133.449C72.2979 135.371 73.5356 137.381 75.0209 140.045C74.0016 138.91 72.8075 138.138 71.7154 137.439C71.2058 137.119 70.6962 136.798 70.2302 136.463C69.1381 134.949 68.7595 133.289 68.7449 130.886C73.7977 132.474 76.011 135.371 75.7198 140.031ZM71.4097 137.934C72.924 138.91 74.5695 139.958 75.6179 141.88C75.6616 142.9 75.8945 143.817 76.2003 144.618L76.1858 144.603C75.1519 143.38 74.0744 142.113 71.5553 140.016C71.5116 139.987 71.4533 139.987 71.4242 140.016C71.3805 140.06 71.3805 140.118 71.4242 140.147C71.7446 140.541 72.2688 141.108 72.8804 141.778C73.8705 142.856 75.0791 144.166 75.9237 145.288C75.1519 145.025 74.3219 144.851 73.5211 144.72C72.5746 144.283 71.6281 143.642 70.8418 142.739C69.3419 141.036 68.4828 138.487 68.6721 135.706C69.3419 136.463 70.4486 137.323 71.4097 137.934ZM77.904 148.142C78.5593 146.54 79.564 144.123 80.5979 138.706C81.4133 134.439 81.3987 131.047 81.3842 129.023C81.3842 128.047 81.3696 127.261 81.4715 126.999C82.0831 125.368 83.9761 124.814 85.4468 125.106C88.0241 125.63 88.6503 127.523 88.7085 128.265C88.7377 128.702 88.6357 129.139 88.4319 130.027C88.1406 131.25 87.6747 133.755 87.1942 137.745C86.6699 142.04 86.6991 145.025 86.932 147.617C87.0777 149.117 87.1796 150.311 87.0485 151.039C86.9175 151.738 86.6263 152.321 86.1749 152.772C85.4613 152.67 84.7478 152.612 84.0198 152.583C83.9033 152.568 83.7722 152.612 83.7285 152.714C83.6703 152.83 83.7285 152.961 83.8305 153.107C83.947 153.253 84.0489 153.413 84.1508 153.588C83.9033 153.617 83.6412 153.646 83.3645 153.646H83.2917C81.9812 153.646 80.5542 152.991 79.8698 152.073C79.3747 151.418 79.3165 150.952 79.6223 150.049C79.7824 149.569 80.1465 148.957 80.4377 148.695C80.7872 148.375 81.5152 148.171 82.3598 148.171C83.6121 148.171 84.6459 148.666 84.9954 149.132C84.9663 149.671 84.9226 150.122 84.8498 150.69C84.8498 150.719 84.8352 150.734 84.8207 150.748C84.7915 150.763 84.7624 150.748 84.7333 150.719C84.0343 150.093 82.7529 149.685 81.9666 149.685H81.9229C81.2822 149.7 80.7289 149.889 80.4522 150.18C80.2921 150.355 80.2047 150.573 80.2193 150.821C80.2484 151.418 80.6124 152.102 82.1559 152.102H82.2433C83.714 152.073 85.0099 151.68 85.5633 151.083C85.7817 151.199 86.0292 151.36 86.2768 151.549C86.2913 151.564 86.3059 151.564 86.3205 151.564C86.335 151.564 86.3496 151.549 86.3496 151.534C86.5971 150.85 86.568 149.743 85.9128 148.826C85.4322 148.142 84.4421 147.341 82.5054 147.341H82.3743C80.9037 147.37 79.5203 147.938 78.6466 148.884C77.4672 150.151 77.8458 152.481 78.5447 153.136C78.5593 153.151 78.5738 153.151 78.5884 153.151C78.603 153.151 78.6175 153.136 78.6175 153.122C78.6903 152.961 78.7777 152.801 78.9233 152.641C79.7679 153.806 81.1949 154.447 83.0296 154.447H83.1752C83.6557 154.432 84.1071 154.388 84.5294 154.286C84.6168 154.476 84.7187 154.665 84.8207 154.869C84.9663 155.16 85.1264 155.481 85.3012 155.801C84.4275 155.946 83.6849 156.034 83.117 156.048C80.2921 156.107 77.3652 154.621 77.1905 151.214C77.1323 150.02 77.4089 149.35 77.904 148.142ZM84.5585 153.151C87.631 153.34 90.849 154.039 92.9604 157.606C93.0187 158.393 93.1497 159.135 93.3245 159.834C93.0915 159.689 92.8731 159.572 92.6401 159.441C90.019 156.238 88.5484 155.262 87.2087 154.869C87.1855 154.863 87.161 154.866 87.1395 154.876C87.1181 154.887 87.1013 154.905 87.0922 154.927C87.0777 154.971 87.0922 155.029 87.1359 155.058C88.1261 155.626 89.8006 156.806 91.3441 158.873C90.0919 158.422 88.825 158.233 87.5873 158.189C86.568 156.995 85.8982 155.699 85.3449 154.578C85.0682 154.039 84.8207 153.558 84.5585 153.151ZM95.2903 156.966L95.5669 154.665C96.9211 154.49 98.3481 154.345 99.848 154.243L99.5858 160.897C98.6248 159.266 97.0959 158.218 95.6834 157.242C95.5524 157.155 95.4213 157.053 95.2903 156.966ZM100.678 120.169C100.663 119.893 100.809 119.674 101.115 119.674C101.391 119.674 101.537 119.82 101.552 120.155L101.77 127.319L101.042 127.363L100.678 120.169ZM103.241 120.3C103.226 119.791 103.43 119.645 103.765 119.645C104.114 119.645 104.289 119.893 104.26 120.329L104.173 127.319C103.896 127.319 103.605 127.304 103.314 127.304L103.241 120.3ZM105.76 127.363L105.978 120.155C105.993 119.834 106.153 119.645 106.415 119.645C106.721 119.645 106.852 119.907 106.837 120.184L106.473 127.421C106.24 127.392 106.007 127.377 105.76 127.363ZM106.881 127.435L107.303 119.951C107.332 119.31 107.158 118.932 106.444 118.932C105.818 118.932 105.541 119.237 105.527 119.936L105.352 127.348C105.105 127.333 104.842 127.333 104.58 127.319L104.711 119.893C104.711 119.601 104.639 119.31 104.464 119.121C104.289 118.946 104.042 118.902 103.75 118.902C103.474 118.902 103.197 118.961 103.022 119.135C102.848 119.325 102.789 119.601 102.789 119.893L102.92 127.29H102.746C102.556 127.29 102.367 127.29 102.163 127.304L101.988 119.936C101.974 119.237 101.726 118.961 101.115 118.961C100.867 118.961 100.576 119.033 100.43 119.194C100.256 119.383 100.197 119.645 100.212 119.951L100.634 127.392C100.372 127.406 100.125 127.435 99.8625 127.465L99.2655 117.985H108.25L107.653 127.508C107.405 127.465 107.143 127.45 106.881 127.435ZM108.148 117.242C107.828 117.286 107.216 117.286 106.255 117.286H101.26C100.299 117.286 99.6878 117.286 99.3674 117.242C98.8578 117.17 98.7122 117.082 98.6102 116.893C98.4792 116.587 98.4209 116.369 98.4209 116.194H109.109C109.094 116.354 109.051 116.573 108.92 116.864C108.803 117.082 108.672 117.17 108.148 117.242ZM98.2899 115.553C97.8531 115.553 97.7657 115.248 97.7657 115V114.898C97.7657 114.651 97.955 114.316 98.2899 114.316H109.298C109.604 114.316 109.764 114.505 109.764 114.898V115.015C109.764 115.32 109.531 115.568 109.24 115.568H98.2899V115.553ZM97.5764 111.156C97.9113 111.083 98.2608 111.068 98.5083 111.112L98.5957 111.491C98.683 112.044 98.5666 112.321 98.2171 112.481L98.0278 112.554L97.5764 111.156ZM108.832 110.457C108.774 110.459 108.719 110.48 108.674 110.517C108.629 110.553 108.598 110.604 108.585 110.661L108.439 111.447C108.381 112.015 108.41 112.626 109.109 112.976L109.648 113.194C109.706 113.224 109.75 113.238 109.735 113.384L109.589 113.806L97.955 113.821L97.7948 113.384C97.7657 113.238 97.8239 113.209 97.8822 113.194L98.4355 112.976C99.1927 112.612 99.1781 111.928 99.1053 111.432L98.9306 110.719C98.9015 110.602 98.8141 110.53 98.6976 110.53L97.1832 110.471C96.7173 110.457 96.659 110.369 96.6153 110.224L96.4988 109.729H111.031L110.915 110.224C110.871 110.384 110.856 110.457 110.434 110.471L108.832 110.457ZM109.939 111.156L109.488 112.568L109.313 112.495C108.963 112.321 108.861 112.073 108.934 111.505L109.022 111.068C109.255 111.039 109.575 111.068 109.939 111.156ZM110.463 109.001H97.0522C94.999 109.001 94.9117 108.957 94.7078 108.826C94.5622 108.739 94.4748 108.622 94.4748 108.258C94.4748 107.996 94.5622 107.807 94.7224 107.705C94.9408 107.574 95.4796 107.515 98.1443 107.515H109.371C112.021 107.515 112.575 107.559 112.793 107.705C112.968 107.807 113.041 107.996 113.041 108.258C113.041 108.622 112.953 108.753 112.808 108.826C112.604 108.942 112.516 109.001 110.463 109.001ZM97.9987 104.035C97.8507 104.486 97.8059 104.963 97.8676 105.433C97.8676 105.477 97.8822 105.521 97.8822 105.55C97.8967 105.652 97.9259 105.739 97.955 105.826C97.9841 105.899 97.9987 105.957 98.0278 106.03C98.1297 106.263 98.2462 106.467 98.4064 106.642C98.2316 106.773 97.9841 106.86 97.6929 106.86C97.5473 106.86 97.3143 106.831 97.0959 106.729C96.989 106.676 96.8909 106.608 96.8046 106.525C96.7901 106.525 96.7901 106.511 96.7901 106.511C96.7526 106.475 96.7184 106.436 96.6881 106.394C96.6736 106.38 96.6736 106.365 96.659 106.351C96.6299 106.307 96.6008 106.263 96.5571 106.205C96.5571 106.19 96.5425 106.19 96.5425 106.176C96.5134 106.118 96.4697 106.045 96.4552 105.957C96.4552 105.943 96.4406 105.928 96.4406 105.899C96.426 105.841 96.3969 105.768 96.3824 105.695C96.3824 105.666 96.3678 105.637 96.3678 105.608C96.3532 105.535 96.3387 105.462 96.3387 105.39C96.3387 105.36 96.3241 105.331 96.3241 105.288C96.3095 105.171 96.3095 105.069 96.3095 104.938C96.3095 103.831 96.8483 102.492 97.6346 101.574C97.4599 102.623 97.7657 103.54 97.9987 104.035ZM99.2801 98.6039C100.052 99.0262 100.722 99.7397 101.202 100.599C101.1 100.919 100.969 101.225 100.853 101.531C100.561 102.244 100.27 102.987 100.197 103.977C100.183 104.166 100.183 104.356 100.197 104.53V104.618C100.212 104.792 100.227 104.967 100.27 105.127V105.157C100.37 105.639 100.597 106.086 100.925 106.452L100.955 106.482C100.707 106.584 100.43 106.627 100.11 106.627C99.1927 106.627 98.6685 105.943 98.5374 105.186C98.5229 105.084 98.5083 104.967 98.5083 104.851C98.5083 104.181 98.6685 103.831 98.9743 103.22L99.0034 103.162C99.9353 101.167 100.037 99.7106 99.2801 98.6039ZM106.226 105.04C106.226 105.186 106.211 105.302 106.211 105.433C106.211 105.477 106.197 105.521 106.197 105.564C106.182 105.637 106.168 105.71 106.153 105.768L106.109 105.899C106.095 105.957 106.066 106.001 106.051 106.059C106.037 106.103 106.022 106.147 105.993 106.176C105.745 106.627 105.308 106.831 104.624 106.831C104.012 106.831 103.59 106.598 103.328 106.118C103.284 106.045 103.255 105.957 103.226 105.87C103.226 105.855 103.212 105.826 103.212 105.812C103.183 105.739 103.168 105.652 103.153 105.564C103.139 105.521 103.139 105.462 103.124 105.404C103.11 105.331 103.095 105.273 103.095 105.2C103.081 105.069 103.081 104.924 103.081 104.763C103.081 104.006 103.343 103.147 103.59 102.317C103.75 101.793 103.911 101.283 103.983 100.846C104.129 101.05 104.304 101.283 104.493 101.545C105.221 102.535 106.226 103.861 106.226 105.04ZM105.716 102.273C105.454 101.909 105.163 101.545 104.872 101.152C104.493 100.657 104.1 100.162 103.707 99.6087C103.678 99.565 103.634 99.5504 103.59 99.565C103.547 99.5795 103.517 99.6232 103.517 99.6669C103.605 100.628 103.284 101.516 102.964 102.39C102.687 103.162 102.396 103.963 102.396 104.807C102.396 104.953 102.411 105.098 102.425 105.244C102.425 105.302 102.44 105.346 102.44 105.404L102.484 105.637C102.513 105.797 102.556 105.957 102.615 106.103C102.673 106.249 102.731 106.394 102.818 106.525C102.411 106.452 102.09 106.292 101.828 106.088C101.406 105.754 101.188 105.288 101.071 104.792V104.763C101.057 104.661 101.027 104.574 101.013 104.472C100.998 104.385 100.998 104.297 100.984 104.195V104.137C100.984 104.05 100.969 103.963 100.969 103.861C100.969 103.147 101.217 102.463 101.479 101.735C101.785 100.875 102.134 99.8999 102.134 98.735C102.134 97.2934 101.508 96.2887 100.896 95.6625C103.881 96.8129 105.425 99.1427 106.022 101.385C105.92 101.676 105.818 101.982 105.716 102.273ZM72.1232 112.991L93.1061 106.088C93.1497 106.074 93.1789 106.016 93.1789 105.972C93.1643 105.914 93.1206 105.885 93.0624 105.899L74.6277 109.467C75.7635 108.054 76.9867 106.729 78.3117 105.491L93.7468 103.511C93.805 103.511 93.8341 103.453 93.8341 103.409C93.8341 103.351 93.7904 103.322 93.7468 103.307L81.7919 102.594C83.1461 101.604 84.5731 100.701 86.0584 99.8999L94.7952 101.065H94.8097C94.8534 101.065 94.8971 101.036 94.9117 100.992C94.9177 100.969 94.9151 100.944 94.9044 100.923C94.8937 100.901 94.8756 100.885 94.8534 100.875L89.0871 98.4438C90.4122 97.8759 91.781 97.3808 93.1789 96.9731L96.528 99.0845C96.5425 99.099 96.5571 99.099 96.5862 99.099C96.6153 99.099 96.6445 99.0845 96.659 99.0699C96.6881 99.0408 96.6881 98.9825 96.659 98.9388L94.868 96.5217C96.5862 96.0994 98.3627 95.7936 100.168 95.6334C101.013 96.4052 101.566 97.4973 101.566 98.4874C101.566 99.0408 101.508 99.5067 101.406 99.929C100.474 98.6185 99.1927 97.8176 98.1443 97.6429C98.1006 97.6283 98.0569 97.6574 98.0424 97.7011C98.0278 97.7448 98.0278 97.7885 98.0569 97.8176C99.018 98.735 99.3529 99.6232 99.1927 100.774C99.0762 101.647 98.7704 102.288 98.4646 102.914C98.4209 103.016 98.3773 103.103 98.3336 103.205C98.0132 102.535 97.8676 101.764 98.3773 100.482C98.3918 100.439 98.3773 100.395 98.3481 100.366C98.319 100.337 98.2608 100.337 98.2316 100.351C96.7318 101.254 95.6834 103.744 95.6834 105.404C95.6834 106.19 95.8727 106.715 96.2513 107.035C94.9553 107.064 94.6932 107.137 94.4603 107.282C94.1399 107.486 93.9797 107.821 93.9797 108.258C93.9797 108.593 94.038 109.015 94.4603 109.263C94.7224 109.408 94.8825 109.467 95.9455 109.496L96.1494 110.34C96.2804 110.777 96.6153 110.908 96.9939 110.952L97.5909 112.787C97.4308 112.889 97.2415 113.092 97.3143 113.5C97.3143 113.515 97.3143 113.529 97.3288 113.544L97.5473 114.17V114.185C97.3725 114.388 97.2706 114.665 97.2706 114.927V115.044C97.2706 115.539 97.5181 115.903 97.9113 116.034C97.8531 116.369 97.9841 116.762 98.1588 117.155C98.3045 117.417 98.4937 117.563 98.7559 117.665L99.382 127.537C98.683 127.61 97.955 127.697 97.2269 127.799L97.6929 121.422C97.6929 121.363 97.6637 121.32 97.6055 121.32C97.5473 121.305 97.5036 121.349 97.489 121.392L95.7271 128.018L94.5331 128.193C93.7904 128.309 93.0187 128.426 92.2469 128.527L96.1348 117.17C96.1494 117.126 96.1348 117.068 96.0766 117.039C96.0529 117.031 96.0274 117.031 96.0039 117.039C95.9803 117.047 95.9598 117.062 95.9455 117.082L89.291 128.484V128.367C89.2327 127.668 88.7813 126.154 87.1359 125.237L94.9553 113.588C94.9845 113.544 94.9699 113.486 94.9408 113.456C94.8971 113.427 94.8389 113.427 94.8097 113.471L84.2964 124.596C82.884 124.712 81.457 125.455 80.9036 126.94C80.8017 127.217 80.7726 127.654 80.7726 128.338L79.4038 129.78C79.0835 128.557 78.5884 127.363 78.0933 126.256L93.2808 111.403C93.3245 111.36 93.3245 111.301 93.2808 111.272C93.2517 111.229 93.1934 111.229 93.1497 111.258L74.6132 124.377C74.3656 123.664 74.1035 122.98 73.8414 122.324C73.6375 121.8 73.4337 121.276 73.2589 120.766L92.4217 108.957C92.442 108.943 92.4572 108.922 92.465 108.899C92.4729 108.875 92.473 108.85 92.4654 108.826C92.4362 108.782 92.3925 108.753 92.3343 108.782L69.3419 118.349C70.1283 116.471 71.0602 114.694 72.1232 112.991ZM67.4053 124.377L70.7107 122.339C70.2011 123.912 69.8225 125.775 69.9681 127.654L66.5462 130.071C66.6918 128.134 66.983 126.227 67.4053 124.377ZM67.6528 142.171C67.2451 140.584 66.9248 138.953 66.7209 137.293L68.2498 135.808C68.1188 137.687 68.3663 139.347 68.9634 140.788L67.6528 142.171ZM73.8123 155C72.6037 153.384 71.5261 151.665 70.5942 149.845L71.9484 147.836L72.1668 148.229C72.5454 148.899 72.8949 149.539 73.3172 150.122C73.856 150.879 74.3947 151.476 74.9917 151.957C74.6928 151.914 74.3964 151.856 74.1035 151.782C74.0016 151.753 73.8414 151.753 73.7686 151.84C73.6958 151.913 73.7249 152.059 73.7686 152.161C73.9725 152.685 74.2491 153.18 74.584 153.675L73.8123 155ZM74.3219 152.364C75.1228 152.525 76.011 152.612 76.8556 152.67C77.3361 154.185 78.4865 155.539 80.3358 156.194L79.9572 156.238C79.4621 156.281 78.9524 156.34 78.4573 156.383C76.6517 155.408 75.0937 153.922 74.3219 152.364ZM78.0788 156.864C78.6612 156.82 79.2291 156.762 79.797 156.704C80.4377 156.631 81.0929 156.573 81.7336 156.529C82.1268 156.587 82.52 156.616 82.9568 156.616H83.1315C83.4956 156.616 83.9178 156.573 84.3838 156.514C84.8643 156.543 85.3594 156.616 85.8254 156.704C86.1166 157.199 86.4515 157.694 86.8447 158.189C86.2185 158.203 85.607 158.247 84.9954 158.32C84.18 158.16 83.35 158.087 82.2287 158.014C82.185 158.014 82.1268 158.043 82.1268 158.102C82.1268 158.16 82.1559 158.203 82.1996 158.218L82.3161 158.247C82.9714 158.393 83.5247 158.524 84.0489 158.64C84.0489 158.684 84.0635 158.713 84.078 158.757C84.5294 159.631 85.0536 160.402 85.6652 161.087C83.0296 160.941 80.3794 159.834 78.0788 156.864ZM85.7817 165.455C84.0077 164.48 82.3177 163.36 80.7289 162.106L81.3114 160.417C82.6219 161.159 84.2236 161.64 86.2185 161.64C86.3642 161.786 86.5243 161.931 86.6845 162.062L85.7817 165.455ZM92.9022 168.149C90.485 167.61 88.5047 165.892 87.1068 163.14C88.2426 163.533 89.5094 163.562 90.8345 163.591C93.339 163.649 96.1785 163.708 98.8141 166.445L98.8287 166.489C96.8629 166.693 93.7468 166.402 91.3878 165.382C91.3642 165.375 91.3387 165.375 91.3151 165.383C91.2915 165.39 91.2711 165.406 91.2568 165.426C91.2276 165.47 91.2422 165.528 91.2713 165.557C92.8876 166.955 95.5815 167.304 97.8385 167.304C98.0569 167.304 98.2608 167.304 98.4792 167.29C97.3143 168.003 95.2029 168.659 92.9022 168.149ZM101.377 169.139C100.998 169.27 99.6878 169.722 99.018 169.896C98.2462 170.1 97.8676 169.998 97.7657 169.707C97.6346 169.372 97.7511 169.139 98.3336 168.906C98.683 168.775 101.013 167.858 101.552 167.639C101.341 168.11 101.28 168.633 101.377 169.139ZM103.765 170.493C102.556 170.493 101.843 169.736 101.843 168.469C101.843 168.091 101.945 167.727 102.134 167.421C102.76 167.319 104.624 167.29 105.41 167.421C105.6 167.741 105.702 168.105 105.702 168.484C105.687 169.751 104.988 170.493 103.765 170.493ZM109.75 169.707C109.648 169.998 109.269 170.1 108.497 169.896C107.842 169.722 106.532 169.27 106.138 169.139C106.168 168.979 106.182 168.804 106.182 168.629C106.182 168.28 106.095 167.945 105.949 167.639L109.167 168.906C109.779 169.139 109.881 169.372 109.75 169.707ZM109.415 167.13C111.526 165.979 114.06 165.339 116.928 165.222C116.987 165.222 117.016 165.178 117.03 165.12C117.03 165.062 116.987 165.018 116.943 165.018C114.934 164.785 112.589 165.106 110.318 165.892C111.279 165.324 112.225 164.538 113.026 163.402C114.861 162.747 116.739 163.023 118.559 163.3C119.389 163.431 120.452 163.46 121.297 163.489C118.952 166.154 114.497 169.663 109.415 167.13ZM123.394 164.479L122.913 162.907C125.054 162.31 126.743 161.159 128.068 159.82L128.417 160.752C126.859 162.135 125.17 163.373 123.394 164.479ZM118.574 162.732C118.122 162.659 117.642 162.601 117.176 162.543C119.302 161.145 122.753 159.703 125.825 158.961C125.884 158.946 125.913 158.902 125.898 158.844C125.884 158.786 125.84 158.757 125.782 158.757C123.408 159.033 120.671 159.936 118.326 161.159C118.69 160.664 119.011 160.14 119.302 159.587C121.836 157.708 125.389 156.762 129.611 156.966C126.961 161.116 123.19 163.096 118.574 162.732ZM128.854 156.543C127.995 156.529 127.165 156.558 126.379 156.631C126.67 156.281 126.947 155.903 127.194 155.524C129.597 154.578 131.359 153.413 132.48 152.029C132.509 151.986 132.509 151.928 132.465 151.898C132.422 151.869 132.363 151.855 132.334 151.898C131.81 152.379 131.067 152.903 130.165 153.427C130.733 152.685 130.98 151.811 130.922 150.835V150.792C131.446 150.69 131.97 150.617 132.494 150.544C133.295 150.428 134.227 150.18 135.014 149.976C133.994 152.83 132.13 155.815 128.854 156.543ZM134.489 153.908L134.082 153.238C134.664 152.292 135.188 151.141 135.625 149.758C135.639 149.71 135.64 149.658 135.627 149.609C135.614 149.561 135.589 149.516 135.552 149.481C135.517 149.446 135.472 149.42 135.424 149.408C135.375 149.395 135.324 149.395 135.276 149.408C134.708 149.583 134.125 149.7 133.514 149.802C134.533 149.19 135.421 148.418 136.149 147.574L137.256 149.19C136.455 150.835 135.523 152.408 134.489 153.908ZM131.475 150.107C131.271 150.137 131.053 150.18 130.849 150.224C130.762 149.656 130.587 149.175 130.369 148.68C131.883 147.836 133.674 146.584 134.519 145.622C134.533 145.601 134.541 145.576 134.541 145.55C134.541 145.524 134.533 145.498 134.519 145.477C134.475 145.433 134.417 145.433 134.373 145.477C133.426 146.394 132.101 147.224 130.121 148.127C129.917 147.676 129.684 147.151 129.422 146.467C129.903 145.928 130.514 145.477 131.344 145.055C132.334 144.545 133.601 144.108 134.999 143.715C135.989 143.438 137.183 143.045 138.159 142.681C137.664 145.186 135.261 148.797 131.475 150.107ZM140.008 141.604L138.028 139.55C138.581 138.138 138.96 136.594 139.178 135.051L140.867 136.638C140.693 138.342 140.401 139.987 140.008 141.604ZM140.911 129.416L139.251 128.294C139.222 127.858 139.178 127.406 139.12 126.94C139.105 126.838 139.091 126.664 138.989 126.635C138.887 126.605 138.814 126.649 138.741 126.722C138.508 126.984 138.275 127.232 138.028 127.465L136.921 126.722C136.95 126.46 136.965 126.198 136.979 125.921C136.994 124.669 136.717 123.052 135.611 121.334L140.023 123.926C140.445 125.717 140.751 127.537 140.911 129.416ZM114.453 106.656L135.727 113.515C136.65 115.047 137.463 116.643 138.159 118.291L115.181 109.088C115.157 109.08 115.132 109.081 115.108 109.088C115.085 109.096 115.064 109.111 115.05 109.132C115.021 109.175 115.05 109.234 115.094 109.263L132.334 119.398C132.407 120.46 132.16 121.582 131.912 122.761C131.883 122.921 131.839 123.096 131.81 123.271L114.657 111.709C114.613 111.68 114.555 111.695 114.526 111.724C114.497 111.767 114.497 111.826 114.54 111.855L128.971 125.426C128.927 126.3 128.81 127.202 128.694 128.149C128.636 128.644 128.563 129.139 128.505 129.649L126.801 127.887C126.786 127.406 126.786 127.159 126.757 126.999C126.539 125.848 125.49 125.004 123.801 124.771L112.939 113.515C112.909 113.471 112.837 113.471 112.808 113.5C112.764 113.529 112.764 113.588 112.793 113.631L120.743 125.164C120.365 125.339 120.03 125.572 119.753 125.848C119.156 126.416 118.792 127.159 118.676 127.989L111.847 116.835C111.832 116.814 111.812 116.799 111.788 116.791C111.765 116.784 111.739 116.783 111.715 116.791C111.672 116.82 111.643 116.864 111.672 116.922L116.113 128.498C115.385 128.411 114.642 128.309 113.841 128.193C113.375 128.12 112.895 128.062 112.4 127.989L110.201 120.737C110.187 120.693 110.143 120.65 110.085 120.664C110.041 120.679 109.997 120.723 109.997 120.766L110.652 127.756C109.866 127.654 109.051 127.566 108.192 127.494L108.818 117.592C109.08 117.49 109.269 117.344 109.429 117.053C109.575 116.689 109.706 116.296 109.648 115.946C110.026 115.786 110.288 115.408 110.288 114.971V114.898C110.288 114.563 110.201 114.301 110.026 114.112L110.23 113.529C110.23 113.515 110.245 113.5 110.245 113.486C110.318 113.078 110.128 112.874 109.968 112.772L110.565 110.952C110.987 110.923 111.293 110.792 111.424 110.326L111.628 109.496C112.676 109.481 112.822 109.423 113.084 109.263C113.506 109.015 113.565 108.593 113.565 108.258C113.565 107.821 113.405 107.486 113.084 107.282C112.851 107.137 112.589 107.064 111.22 107.035C111.643 106.671 111.832 106.03 111.832 105.084C111.832 103.555 111.031 101.953 109.735 100.905C109.706 100.875 109.662 100.875 109.619 100.89C109.589 100.905 109.56 100.948 109.56 100.992C109.619 101.502 109.502 102.011 109.313 102.521C109.269 102.434 109.225 102.332 109.182 102.244C108.643 101.108 108.09 99.929 108.556 98.1525C108.57 98.1088 108.556 98.0652 108.512 98.036C108.468 98.0069 108.425 98.0215 108.395 98.0506C107.755 98.6185 107.085 99.4485 106.546 100.41C105.731 98.3709 104.1 96.5217 101.552 95.5315C102.28 95.4878 103.022 95.4587 103.765 95.4587C104.857 95.4587 105.935 95.5024 106.998 95.6043L106.459 97.4099C106.444 97.4536 106.459 97.5118 106.502 97.5264C106.517 97.541 106.532 97.541 106.546 97.541C106.575 97.541 106.604 97.5264 106.619 97.5118L108.104 95.7208C109.007 95.8227 109.895 95.9538 110.769 96.1285L109.429 98.0506C109.4 98.0943 109.4 98.1525 109.444 98.1816C109.458 98.1962 109.488 98.2108 109.517 98.2108C109.531 98.2108 109.56 98.2108 109.575 98.1962L112.021 96.3906C112.939 96.5945 113.841 96.842 114.73 97.1041L111.73 99.6523C111.686 99.6815 111.686 99.7397 111.715 99.7834C111.73 99.8125 111.774 99.8271 111.803 99.8271C111.817 99.8271 111.832 99.8271 111.847 99.8125L116.637 97.7448C117.817 98.1816 118.952 98.6622 120.074 99.2009L112.982 102.026C112.939 102.04 112.909 102.099 112.924 102.142C112.939 102.186 112.982 102.215 113.026 102.215H113.041L122.345 100.395C123.816 101.24 125.228 102.186 126.568 103.234L114.278 104.035C114.22 104.035 114.191 104.079 114.191 104.137C114.191 104.195 114.235 104.239 114.278 104.239L128.927 105.229C130.369 106.54 131.708 107.967 132.917 109.496L114.511 106.467C114.468 106.452 114.409 106.496 114.395 106.54C114.38 106.584 114.409 106.642 114.453 106.656Z" fill="black"></path>
      <path d="M99.4396 134.847C99.9202 134.818 100.168 134.803 100.648 134.789C100.823 134.774 100.91 134.862 100.91 135.036V135.328C100.91 135.502 100.823 135.604 100.663 135.604C99.9202 135.648 99.5561 135.663 98.8135 135.706C98.6388 135.721 98.5514 135.633 98.5514 135.459V132.27C98.5514 132.095 98.6388 131.993 98.7989 131.993C98.9445 131.979 99.0174 131.979 99.163 131.979C99.3231 131.964 99.4105 132.051 99.4105 132.226C99.4251 133.275 99.4251 133.799 99.4396 134.847ZM103.313 135.575H102.963C102.76 135.575 102.687 135.517 102.614 135.328C102.133 134.032 101.886 133.391 101.435 132.095C101.391 131.964 101.464 131.848 101.595 131.848H102.017C102.206 131.848 102.294 131.906 102.352 132.095C102.672 133.012 102.832 133.478 103.167 134.396C103.488 133.478 103.648 133.012 103.968 132.08C104.026 131.891 104.114 131.833 104.303 131.833H104.667C104.798 131.833 104.886 131.949 104.827 132.08C104.376 133.376 104.143 134.032 103.662 135.342C103.59 135.517 103.502 135.575 103.313 135.575ZM106.254 135.59C106.065 135.575 105.963 135.575 105.774 135.561C105.657 135.561 105.599 135.43 105.657 135.328C106.109 134.658 106.327 134.338 106.749 133.668C106.371 133.027 106.182 132.707 105.818 132.066C105.759 131.964 105.832 131.848 105.934 131.848C106.138 131.862 106.24 131.862 106.429 131.877C106.633 131.891 106.706 131.935 106.808 132.124C107.026 132.503 107.128 132.692 107.346 133.071L107.885 132.168C107.987 131.993 108.06 131.949 108.264 131.964C108.453 131.979 108.54 131.979 108.73 131.993C108.846 131.993 108.905 132.124 108.846 132.226C108.468 132.823 108.278 133.129 107.885 133.74C108.307 134.454 108.526 134.803 108.963 135.502C109.021 135.604 108.963 135.721 108.846 135.721C108.642 135.706 108.54 135.706 108.322 135.692C108.104 135.677 108.031 135.633 107.929 135.444C107.667 134.993 107.536 134.774 107.288 134.323C107.026 134.745 106.895 134.964 106.633 135.386C106.546 135.561 106.473 135.59 106.254 135.59ZM92.5521 143.001C92.4065 143.016 92.3337 143.031 92.1881 143.045C91.9842 143.074 91.8969 143.031 91.8095 142.841C91.2562 141.618 90.9795 141.021 90.4553 139.798C90.397 139.667 90.4844 139.55 90.6155 139.521C90.7902 139.492 90.8776 139.492 91.0523 139.463C91.2562 139.434 91.3435 139.478 91.4163 139.667C91.7804 140.541 91.9697 140.963 92.3483 141.837C92.654 140.876 92.8142 140.395 93.1054 139.434C93.1637 139.23 93.2511 139.172 93.4549 139.143C93.6151 139.128 93.6879 139.114 93.8335 139.084C93.9646 139.07 94.0665 139.172 94.0083 139.303C93.5714 140.657 93.353 141.342 92.887 142.696C92.8433 142.9 92.7705 142.972 92.5521 143.001ZM95.7119 142.608C95.5372 142.623 95.4353 142.536 95.4353 142.361C95.4207 141.094 95.4061 140.453 95.4061 139.186C95.4061 139.012 95.4935 138.91 95.6682 138.895C96.5128 138.822 96.9205 138.793 97.7651 138.72C97.9398 138.706 98.0272 138.793 98.0417 138.968C98.0417 139.07 98.0417 139.128 98.0563 139.23C98.0563 139.405 97.9689 139.507 97.8088 139.521C97.2263 139.565 96.9351 139.594 96.3526 139.638C96.3526 139.9 96.3526 140.016 96.3672 140.279C96.7749 140.249 96.9788 140.235 97.3865 140.191C97.5612 140.177 97.6486 140.264 97.6632 140.439V140.672C97.6632 140.846 97.5758 140.948 97.401 140.963C96.9933 140.992 96.7895 141.007 96.3817 141.05C96.3817 141.342 96.3963 141.473 96.3963 141.764C96.9933 141.72 97.2846 141.691 97.8816 141.647C98.0563 141.633 98.1582 141.72 98.1582 141.895C98.1582 141.997 98.1582 142.055 98.1728 142.157C98.1728 142.332 98.0854 142.434 97.9107 142.448C97.0079 142.506 96.571 142.55 95.7119 142.608ZM100.211 142.317C100.051 142.317 99.9784 142.332 99.8182 142.332C99.6435 142.332 99.5416 142.244 99.5561 142.07C99.5561 140.788 99.5561 140.162 99.5707 138.881C99.5707 138.706 99.6581 138.619 99.8328 138.604C100.313 138.589 100.561 138.575 101.041 138.56C101.828 138.531 102.337 138.983 102.352 139.682C102.366 140.118 102.148 140.482 101.755 140.672C102.046 141.21 102.192 141.473 102.498 142.011C102.556 142.128 102.483 142.244 102.352 142.244C102.163 142.244 102.061 142.259 101.871 142.259C101.653 142.259 101.58 142.215 101.478 142.026C101.231 141.574 101.114 141.342 100.881 140.876C100.721 140.876 100.634 140.89 100.459 140.89V142.026C100.473 142.215 100.386 142.317 100.211 142.317ZM101.027 139.317C100.808 139.317 100.692 139.332 100.473 139.332V140.177C100.692 140.177 100.808 140.162 101.041 140.162C101.095 140.16 101.148 140.148 101.196 140.125C101.245 140.103 101.289 140.072 101.325 140.032C101.362 139.993 101.39 139.947 101.409 139.897C101.428 139.847 101.436 139.793 101.435 139.74C101.42 139.478 101.245 139.317 101.027 139.317ZM104.085 142.244C103.91 142.244 103.823 142.157 103.823 141.982C103.823 140.701 103.837 140.075 103.837 138.793C103.837 138.619 103.925 138.531 104.099 138.531H104.478C104.653 138.531 104.74 138.619 104.74 138.793C104.74 140.075 104.755 140.701 104.755 141.982C104.755 142.157 104.667 142.244 104.492 142.244H104.085ZM107.303 142.332C107.128 142.317 107.041 142.23 107.041 142.055C107.055 141.007 107.07 140.482 107.084 139.434C106.749 139.419 106.589 139.405 106.254 139.39C106.08 139.376 105.992 139.288 105.992 139.114V138.822C105.992 138.648 106.08 138.56 106.254 138.575C107.274 138.619 107.783 138.648 108.803 138.691C108.977 138.706 109.065 138.793 109.065 138.968V139.259C109.065 139.434 108.977 139.521 108.803 139.507C108.468 139.492 108.307 139.478 107.973 139.463C107.973 140.512 107.958 141.036 107.958 142.084C107.958 142.259 107.871 142.346 107.681 142.332H107.303ZM110.099 142.477C109.938 142.463 109.866 142.463 109.705 142.448C109.56 142.434 109.487 142.317 109.545 142.186C110.113 140.934 110.375 140.308 110.914 139.07C110.987 138.881 111.074 138.837 111.278 138.852C111.424 138.866 111.496 138.866 111.657 138.881C111.86 138.895 111.933 138.968 112.006 139.157C112.487 140.497 112.734 141.167 113.229 142.506C113.287 142.637 113.2 142.754 113.054 142.739C112.88 142.725 112.778 142.71 112.603 142.696C112.399 142.681 112.312 142.608 112.239 142.419C112.166 142.23 112.137 142.128 112.079 141.939C111.511 141.88 111.234 141.866 110.666 141.807L110.477 142.259C110.39 142.448 110.302 142.492 110.099 142.477ZM111.817 141.196C111.657 140.701 111.569 140.453 111.409 139.958C111.22 140.424 111.132 140.657 110.943 141.109C111.278 141.152 111.453 141.167 111.817 141.196ZM94.4305 149.423C94.2849 149.438 94.2121 149.452 94.0665 149.467C93.8481 149.481 93.7607 149.438 93.6733 149.263C93.1055 148.025 92.8288 147.399 92.29 146.161C92.2318 146.03 92.3191 145.914 92.4648 145.899C92.6395 145.885 92.7414 145.87 92.9162 145.856C93.12 145.841 93.2074 145.885 93.2802 146.059C93.6588 146.948 93.8481 147.384 94.2412 148.258C94.5616 147.312 94.7218 146.831 95.0275 145.87C95.0858 145.666 95.1732 145.608 95.377 145.579C95.5372 145.564 95.61 145.55 95.7702 145.535C95.9158 145.521 96.0032 145.623 95.9595 145.768C95.5081 147.108 95.2751 147.778 94.7946 149.132C94.7363 149.336 94.6489 149.394 94.4305 149.423ZM97.6923 149.132C97.503 149.146 97.4156 149.059 97.401 148.884C97.3719 147.617 97.3719 146.977 97.3428 145.695C97.3428 145.521 97.4302 145.419 97.6049 145.419C97.7651 145.404 97.8379 145.404 97.9981 145.39C98.1728 145.375 98.2747 145.462 98.2747 145.637L98.3475 148.826C98.3475 149.001 98.2602 149.103 98.0709 149.103C97.9398 149.117 97.8524 149.132 97.6923 149.132ZM100.648 148.986C100.488 148.986 100.401 148.986 100.241 149.001C100.051 149.001 99.9638 148.913 99.9638 148.739C99.9638 147.457 99.9638 146.831 99.9784 145.55C99.9784 145.375 100.066 145.288 100.255 145.273C100.75 145.259 101.012 145.259 101.507 145.244C102.323 145.229 102.847 145.681 102.862 146.365C102.876 146.802 102.643 147.151 102.235 147.341C102.541 147.88 102.687 148.142 103.007 148.68C103.065 148.797 102.993 148.913 102.862 148.913C102.672 148.913 102.57 148.913 102.366 148.928C102.148 148.928 102.061 148.884 101.959 148.695C101.711 148.229 101.58 148.011 101.347 147.545C101.172 147.545 101.085 147.545 100.925 147.559V148.695C100.925 148.899 100.823 148.986 100.648 148.986ZM101.493 146.001C101.26 146.001 101.143 146.016 100.91 146.016V146.86C101.143 146.86 101.26 146.846 101.493 146.846C101.74 146.846 101.901 146.671 101.901 146.423C101.901 146.161 101.726 146.001 101.493 146.001ZM105.162 148.957C104.973 148.957 104.886 148.855 104.886 148.68C104.9 147.632 104.9 147.108 104.9 146.045C104.551 146.045 104.39 146.03 104.041 146.03C103.866 146.03 103.764 145.928 103.779 145.754V145.462C103.779 145.288 103.881 145.2 104.056 145.2C105.104 145.215 105.643 145.229 106.691 145.244C106.866 145.244 106.968 145.346 106.968 145.521V145.812C106.968 145.987 106.88 146.074 106.706 146.074C106.356 146.074 106.196 146.059 105.847 146.059V148.695C105.847 148.87 105.745 148.957 105.57 148.957H105.162ZM109.822 149.176C109.676 149.161 109.603 149.161 109.458 149.146C109.239 149.132 109.152 149.074 109.079 148.87C108.584 147.545 108.351 146.875 107.871 145.55C107.827 145.419 107.914 145.302 108.045 145.317C108.22 145.331 108.307 145.331 108.497 145.346C108.701 145.36 108.788 145.419 108.846 145.623C109.167 146.569 109.341 147.035 109.676 147.981C110.055 147.079 110.23 146.642 110.579 145.739C110.652 145.55 110.739 145.506 110.943 145.506C111.103 145.521 111.176 145.521 111.336 145.535C111.482 145.55 111.569 145.666 111.511 145.797C111.001 147.064 110.725 147.69 110.171 148.957C110.128 149.132 110.04 149.19 109.822 149.176ZM115.501 142.39C115.734 142.419 115.894 142.317 115.894 142.157C115.894 142.026 115.821 141.939 115.676 141.822C115.53 141.72 115.108 141.414 114.962 141.312C114.583 141.036 114.38 140.686 114.409 140.293C114.438 139.682 114.977 139.245 115.676 139.317C116.01 139.347 116.36 139.492 116.607 139.725C116.709 139.827 116.709 139.973 116.607 140.089C116.578 140.118 116.476 140.235 116.447 140.279C116.331 140.41 116.214 140.41 116.069 140.293C115.943 140.19 115.792 140.119 115.632 140.089C115.413 140.075 115.297 140.177 115.282 140.322C115.282 140.453 115.341 140.541 115.501 140.657C115.646 140.759 116.069 141.065 116.214 141.167C116.607 141.443 116.797 141.807 116.782 142.172C116.753 142.856 116.185 143.22 115.457 143.147C114.947 143.103 114.569 142.87 114.292 142.594C114.161 142.463 114.161 142.332 114.292 142.201C114.336 142.172 114.438 142.055 114.481 142.011C114.598 141.895 114.714 141.909 114.846 142.026C115.093 142.273 115.297 142.375 115.501 142.39ZM113.593 148.768C113.826 148.782 113.986 148.695 113.986 148.52C113.986 148.389 113.914 148.302 113.768 148.185C113.622 148.083 113.215 147.778 113.069 147.676C112.69 147.399 112.501 147.05 112.53 146.656C112.574 146.03 113.098 145.608 113.797 145.666C114.132 145.695 114.467 145.841 114.729 146.074C114.831 146.176 114.831 146.321 114.729 146.438C114.7 146.482 114.598 146.584 114.569 146.627C114.452 146.758 114.336 146.758 114.205 146.642C114.059 146.525 113.914 146.453 113.783 146.438C113.579 146.423 113.448 146.525 113.433 146.671C113.419 146.802 113.477 146.889 113.652 147.006C113.797 147.108 114.205 147.414 114.35 147.516C114.729 147.792 114.918 148.142 114.904 148.52C114.875 149.205 114.307 149.583 113.579 149.51C113.084 149.467 112.69 149.248 112.428 148.972C112.297 148.841 112.297 148.71 112.428 148.578C112.472 148.549 112.574 148.433 112.618 148.389C112.734 148.273 112.851 148.273 112.982 148.389C113.2 148.651 113.404 148.753 113.593 148.768ZM54.9693 138.138C54.9693 138.327 54.8674 138.429 54.6781 138.429H54.2558C54.0665 138.429 53.9646 138.327 53.9646 138.138V135.357L53.5423 135.459C53.3676 135.502 53.2656 135.43 53.2656 135.24V134.92C53.2656 134.702 53.3239 134.6 53.5423 134.541L53.8918 134.425C54.055 134.365 54.2277 134.336 54.4014 134.338H54.6781C54.8674 134.338 54.9693 134.439 54.9693 134.629V138.138ZM57.9107 138.517C56.8914 138.517 56.3089 137.949 56.3089 137.293C56.3089 136.871 56.5419 136.522 56.9642 136.318C56.5856 136.114 56.3818 135.794 56.3818 135.4C56.3818 134.789 56.9496 134.236 57.9107 134.236C58.8717 134.236 59.4396 134.774 59.4396 135.4C59.4396 135.794 59.2358 136.114 58.8717 136.318C59.294 136.522 59.527 136.886 59.527 137.293C59.5124 137.949 58.9445 138.517 57.9107 138.517ZM57.9107 136.74C57.503 136.74 57.2846 136.973 57.2846 137.221C57.2846 137.483 57.503 137.701 57.9107 137.701C58.3184 137.701 58.5368 137.468 58.5368 137.221C58.5368 136.973 58.3184 136.74 57.9107 136.74ZM57.3574 135.502C57.3574 135.735 57.5467 135.954 57.9107 135.954C58.2747 135.954 58.464 135.735 58.464 135.502C58.464 135.269 58.2747 135.051 57.9107 135.051C57.5467 135.051 57.3574 135.255 57.3574 135.502ZM148.337 138.444L148.176 138.138C148.089 137.963 148.147 137.832 148.307 137.745C148.875 137.468 149.269 137.192 149.472 136.813C149.283 136.959 149.036 137.046 148.788 137.046C147.973 137.046 147.448 136.493 147.448 135.706C147.448 134.905 148.06 134.265 149.094 134.265C150.011 134.265 150.666 134.876 150.666 135.852C150.666 137.192 149.924 138.065 148.744 138.589C148.555 138.662 148.424 138.619 148.337 138.444ZM148.409 135.692C148.409 136.027 148.642 136.274 149.036 136.274C149.4 136.274 149.662 136.012 149.662 135.677C149.662 135.342 149.414 135.095 149.036 135.095C148.657 135.095 148.409 135.342 148.409 135.692ZM153.215 138.517C152.195 138.517 151.613 137.949 151.613 137.293C151.613 136.871 151.846 136.522 152.268 136.318C151.89 136.114 151.686 135.794 151.686 135.4C151.686 134.789 152.254 134.236 153.215 134.236C154.176 134.236 154.744 134.774 154.744 135.4C154.744 135.794 154.54 136.114 154.176 136.318C154.598 136.522 154.831 136.886 154.831 137.293C154.816 137.949 154.234 138.517 153.215 138.517ZM153.215 136.74C152.807 136.74 152.589 136.973 152.589 137.221C152.589 137.483 152.807 137.701 153.215 137.701C153.622 137.701 153.841 137.468 153.841 137.221C153.841 136.973 153.608 136.74 153.215 136.74ZM152.661 135.502C152.661 135.735 152.851 135.954 153.215 135.954C153.579 135.954 153.768 135.735 153.768 135.502C153.768 135.269 153.579 135.051 153.215 135.051C152.836 135.051 152.661 135.255 152.661 135.502ZM103.007 110.399L100.401 110.442C100.328 110.442 100.27 110.471 100.226 110.53C100.179 110.581 100.153 110.649 100.153 110.719C100.153 110.748 100.197 111.505 100.328 112C100.503 112.656 100.998 113.02 101.755 113.02C102.512 113.02 103.007 112.627 103.124 111.942C103.196 111.447 103.269 110.719 103.269 110.69C103.269 110.617 103.255 110.544 103.196 110.501C103.153 110.428 103.08 110.413 103.007 110.399ZM102.629 111.855C102.556 112.292 102.265 112.51 101.755 112.51C101.231 112.51 100.925 112.306 100.823 111.869C100.779 111.68 100.736 111.433 100.706 111.2C101.158 110.952 102.163 110.879 102.716 111.112C102.701 111.36 102.658 111.636 102.629 111.855ZM107.113 110.413H104.478C104.405 110.428 104.332 110.442 104.289 110.501C104.243 110.554 104.218 110.62 104.216 110.69L104.245 110.894C104.289 111.418 104.289 111.447 104.376 111.942C104.478 112.627 104.973 113.02 105.716 113.02H105.759C106.516 113.005 107.026 112.641 107.186 111.971C107.317 111.476 107.361 110.719 107.361 110.675C107.361 110.603 107.346 110.544 107.288 110.486C107.241 110.441 107.179 110.416 107.113 110.413ZM106.691 111.855C106.575 112.292 106.269 112.51 105.745 112.525C105.25 112.539 104.944 112.321 104.871 111.884C104.813 111.505 104.798 111.418 104.769 111.141C105.322 110.894 106.356 110.952 106.808 111.185C106.779 111.403 106.749 111.651 106.691 111.855ZM75.4862 166.693L75.7192 166.416C75.1804 165.965 74.598 165.455 74.0592 164.96L73.8117 165.222C74.0592 165.644 74.0155 166.154 73.171 167.042L71.6129 168.688C70.6082 169.751 69.2831 169.94 68.1619 168.833C67.1426 167.814 67.3173 166.605 68.4385 165.528L70.3752 163.664C71.1615 162.907 71.3362 162.936 71.7731 163.256L72.0352 163.009C71.3654 162.324 70.681 161.524 70.0694 160.795L69.7927 161.028C70.0694 161.509 70.0548 161.684 69.254 162.426L67.2008 164.319C65.934 165.484 65.4972 167.392 67.2591 169.154C69.0356 170.93 70.9285 170.493 72.108 169.226L73.7097 167.508C74.5543 166.605 75.0348 166.489 75.4862 166.693ZM83.2474 171.906L83.4076 171.6C82.7523 171.25 82.1116 170.901 81.4709 170.508L81.2962 170.814C81.6166 171.178 81.6894 171.658 81.0632 172.721L79.6945 175.007L78.3985 168.979C78.2966 168.484 78.2092 168.367 78.0781 168.265C77.7578 168.032 77.0443 167.508 76.5638 167.13L76.3599 167.406C76.5638 167.61 76.5929 167.858 76.6948 168.644C76.7385 168.862 76.7531 169.081 76.5638 169.343L74.4669 172.343C73.7534 173.347 73.3457 173.493 72.8506 173.333L72.6322 173.609C73.2292 174.061 73.8408 174.527 74.4669 174.949L74.6708 174.658C74.365 174.265 74.3213 173.872 75.0639 172.794L76.9132 170.1L78.515 177.512L78.9373 177.745L81.7039 173.085C82.3301 172.008 82.7669 171.804 83.2474 171.906ZM84.9074 172.721C85.3734 173.056 85.4171 173.216 84.9802 174.206L83.3057 178.007C82.8688 178.997 82.7378 179.085 82.1844 178.968L82.0388 179.288C82.9562 179.711 83.8881 180.118 84.8346 180.497L84.9802 180.177C84.5143 179.842 84.4851 179.696 84.9074 178.691L86.5092 174.862C86.9314 173.857 87.0771 173.784 87.6304 173.901L87.7614 173.58C86.8441 173.216 85.9413 172.823 85.053 172.415L84.9074 172.721ZM94.4888 175.954C95.0421 176.23 95.1877 176.609 94.6926 177.192L91.8095 180.657L90.9358 176.129C90.8339 175.575 91.0086 175.211 91.5183 175.197L91.6202 174.862C90.7028 174.585 89.6835 174.265 88.6351 173.886L88.5041 174.221C88.8681 174.512 88.9409 174.818 89.1593 175.794L90.6009 182.579L91.0669 182.696L95.4207 177.497C96.0614 176.74 96.4837 176.449 96.906 176.391L96.9496 176.041C96.1633 175.925 95.3625 175.765 94.547 175.59L94.4888 175.954ZM103.328 183.031C102.905 183.293 102.133 183.409 100.823 183.336C99.8474 183.278 99.7891 183.249 99.7163 183.162C99.6435 183.089 99.6144 182.972 99.6289 182.754C99.6726 182.04 99.76 180.992 99.8474 180.046C101.26 180.147 101.638 180.22 101.857 180.322C102.206 180.497 102.294 180.686 102.352 180.977L102.716 180.992L102.774 178.808L102.41 178.793C102.323 179.07 102.221 179.288 101.886 179.39C101.478 179.507 101.012 179.492 99.9056 179.376C99.9784 178.589 100.037 177.949 100.08 177.73C100.109 177.526 100.153 177.352 100.241 177.264C100.342 177.177 100.444 177.162 101.303 177.206C102.832 177.293 103.269 177.439 104.143 178.153L104.405 177.963L103.895 176.58C103.065 176.58 102.075 176.565 101.085 176.493C99.891 176.42 98.7844 176.318 97.8961 176.187L97.8379 176.551C98.3767 176.711 98.464 176.871 98.3767 177.949L97.9835 182.07C97.8816 183.147 97.7505 183.264 97.1972 183.336L97.1681 183.686C98.1 183.802 99.6289 183.948 100.634 184.006C101.697 184.064 103.488 184.123 104.23 184.108L104.725 182.186L104.405 182.055C104.041 182.434 103.735 182.783 103.328 183.031ZM114.278 182.477C113.491 182.608 112.778 181.502 111.555 180.22C112.836 179.769 113.462 178.91 113.331 177.876C113.156 176.551 112.064 175.794 109.778 176.158C108.468 176.376 106.997 176.463 106.138 176.522L106.152 176.886C106.706 176.944 106.837 177.075 106.953 178.153L107.346 182.273C107.463 183.351 107.346 183.482 106.808 183.657L106.837 184.006C107.536 183.963 108.846 183.846 109.895 183.73L109.866 183.38C109.327 183.322 109.196 183.205 109.079 182.128L108.919 180.788C109.181 180.744 109.429 180.715 109.705 180.672C111.54 182.667 112.341 183.555 113.826 183.336C114.467 183.249 114.875 182.87 115.079 182.375L114.773 182.172C114.627 182.346 114.511 182.448 114.278 182.477ZM110.142 179.929C109.676 180.016 109.225 180.046 108.832 180.075L108.482 177.06C108.788 177.017 109.152 176.959 109.487 176.915C110.841 176.74 111.496 177.25 111.657 178.225C111.817 179.143 111.307 179.74 110.142 179.929ZM119.01 176.988C117.408 177.177 116.506 177.323 116.2 176.405C116.04 175.925 116.331 175.269 117.336 174.935C118.53 174.541 119.476 174.905 120.495 175.546L120.757 175.328L119.665 173.711L119.476 173.726C119.418 173.784 119.316 173.872 119.199 173.915C118.631 174.105 118.253 173.915 117.161 174.265C115.69 174.745 114.685 175.997 115.137 177.381C115.676 179.041 117.306 178.881 118.792 178.706C120.364 178.517 121.223 178.356 121.515 179.259C121.689 179.798 121.34 180.512 120.306 180.846C118.748 181.356 117.525 181.036 116.287 180.162L116.025 180.38L117.103 182.259L117.306 182.244C117.394 182.128 117.539 182.026 117.714 181.968C118.442 181.72 118.996 182.026 120.481 181.531C121.806 181.094 123.087 179.885 122.563 178.298C122.053 176.696 120.466 176.827 119.01 176.988ZM126.465 176.915L124.587 173.216C124.092 172.255 124.136 172.095 124.587 171.731L124.427 171.425C123.553 171.891 122.68 172.328 121.777 172.736L121.922 173.056C122.476 172.91 122.621 172.983 123.102 173.959L124.907 177.701C125.373 178.677 125.359 178.822 124.907 179.186L125.068 179.507C125.985 179.084 126.902 178.633 127.805 178.153L127.645 177.832C127.077 177.963 126.946 177.876 126.465 176.915ZM132.61 173.158L130.004 169.459C129.684 168.993 129.713 168.877 130.062 168.629C130.645 168.222 131.489 168.134 132.669 168.396L132.858 168.105L131.227 166.911C130.47 167.523 129.684 168.12 128.591 168.877C127.499 169.634 126.669 170.144 125.825 170.639L126.364 172.561L126.713 172.488C126.888 171.294 127.266 170.552 127.849 170.144C128.198 169.896 128.329 169.925 128.65 170.391L131.183 174.134C131.795 175.036 131.795 175.182 131.402 175.604L131.606 175.896C132.45 175.342 133.295 174.774 134.11 174.163L133.906 173.872C133.368 174.105 133.236 174.046 132.61 173.158ZM139.687 167.013L138.435 165.805L138.071 162.63C137.94 161.494 137.911 160.97 138.085 160.577L137.809 160.359C137.299 160.97 136.702 161.669 136.149 162.281L136.411 162.514C136.891 162.164 137.285 162.397 137.386 163.154L137.678 165.586L135.115 165.208C134.46 165.106 134.212 164.844 134.532 164.45L134.285 164.203C133.586 164.887 132.683 165.717 131.868 166.387L132.086 166.664C132.552 166.562 132.829 166.547 133.484 166.635L137.401 167.159L138.479 168.251C139.236 169.023 139.279 169.168 138.974 169.649L139.221 169.896C139.949 169.197 140.663 168.469 141.362 167.727L141.114 167.479C140.619 167.799 140.459 167.756 139.687 167.013ZM58.5077 110.952C58.7116 110.894 58.9445 110.865 59.2358 111.025L62.4538 112.714C63.5459 113.282 63.7498 113.704 63.677 114.199L63.9973 114.345C64.3177 113.675 64.638 113.005 64.9875 112.35L64.6817 112.19C64.3322 112.539 63.8517 112.627 62.7742 112.044L59.8328 110.486L67.1426 108.71L67.4047 108.316L62.8179 105.448C61.7694 104.793 61.6093 104.385 61.7549 103.89L61.4637 103.686C61.0414 104.312 60.6191 104.938 60.2259 105.579L60.5172 105.768C60.8958 105.433 61.2744 105.39 62.3956 106.074L64.8273 107.574L58.7116 109.015C58.2165 109.132 58.1291 109.248 58.0417 109.379C57.867 109.714 57.3137 110.821 57.0807 111.345L57.401 111.491C57.5612 111.287 57.7796 111.156 58.5077 110.952ZM65.6136 104.064C67.2154 105.506 69.6617 105.477 71.2926 103.671C72.9089 101.866 72.6759 99.434 71.0741 97.9924C69.4724 96.5508 67.0261 96.5799 65.3952 98.3856C63.7644 100.177 64.0119 102.623 65.6136 104.064ZM65.8757 98.8078C66.7931 97.7885 68.3803 97.8613 69.982 99.3029C71.511 100.672 71.7294 102.186 70.7975 103.234C69.8801 104.254 68.2929 104.181 66.6912 102.739C65.1622 101.371 64.9293 99.8708 65.8757 98.8078ZM71.8313 94.7743L74.4233 98.007C75.0931 98.8661 75.0931 99.0408 74.729 99.4777L74.9766 99.7543C75.6318 99.1864 76.4182 98.5457 77.2481 97.905L77.0443 97.6284C76.5492 97.8759 76.3745 97.8613 75.7192 97.0022L74.9038 95.9392C75.0931 95.7791 75.2824 95.6189 75.4862 95.4587C78.0927 96.3178 79.2285 96.7692 80.4808 95.8956C81.005 95.5315 81.2525 94.9782 81.2234 94.4394L80.8594 94.3812C80.8011 94.5996 80.7283 94.7452 80.539 94.8763C79.8401 95.3714 78.6024 94.687 76.9132 94.1336C77.816 93.158 77.9762 92.1533 77.3501 91.3087C76.6075 90.304 75.3115 89.9545 73.1419 91.5708C72.2682 92.2261 70.8848 93.3473 70.2441 93.9007L70.4626 94.1773C70.9868 93.9007 71.1615 93.9152 71.8313 94.7743ZM73.4622 92.197C74.5543 91.3815 75.4134 91.5126 76.0104 92.3135C76.5783 93.0852 76.4473 93.8279 75.5299 94.5559C75.1659 94.8471 74.8018 95.0947 74.4669 95.3277L72.6176 92.8959C72.8652 92.6921 73.1564 92.43 73.4622 92.197ZM78.7917 90.2603C79.0538 89.0809 79.4906 88.3674 80.1167 87.9888C80.5245 87.7412 80.6555 87.7703 80.9176 88.28C81.6457 89.6633 82.8543 92.1096 83.0727 92.6484C83.3494 93.3036 83.262 93.5657 82.8543 93.8715L83.0144 94.1773C83.8881 93.7114 84.9511 93.2017 85.8393 92.794L85.6937 92.4736C85.1986 92.6193 84.9365 92.5173 84.5871 91.9058C84.3104 91.3961 83.1018 88.9498 82.4466 87.5228C82.2136 87.0131 82.2573 86.8967 82.7087 86.7074C83.3785 86.4453 84.223 86.5326 85.3151 87.0423L85.5481 86.7947L84.2376 85.2949C83.1892 85.7317 82.1408 86.1977 81.1069 86.7074C80.0585 87.217 79.0538 87.7558 78.0636 88.3237L78.4567 90.2749L78.7917 90.2603ZM87.3537 85.9356L88.606 89.8817C88.9263 90.9156 88.8535 91.0903 88.373 91.367L88.4895 91.7019C89.3777 91.3815 90.3825 91.0321 91.2853 90.77L91.1834 90.4351C90.63 90.4933 90.4698 90.4059 90.1641 89.3721L89.5962 87.4354C90.6737 87.0568 91.9697 86.7219 93.0909 86.5035L93.5714 88.4693C93.8335 89.5177 93.7316 89.6779 93.2219 89.8963L93.3093 90.2312C94.2412 89.9982 95.2751 89.7944 96.207 89.6342L96.1488 89.2847C95.5954 89.2847 95.4498 89.1682 95.2023 88.1198L94.2995 84.0718C94.0519 83.0088 94.1393 82.8632 94.649 82.6447L94.5761 82.2953C93.6588 82.4554 92.5376 82.703 91.5765 82.936L91.6639 83.2709C92.2172 83.2709 92.3483 83.3728 92.6104 84.4212L92.9307 85.7609C91.7658 86.1103 90.5718 86.4307 89.3923 86.7074L89.0137 85.3823C88.7079 84.3484 88.7807 84.1882 89.2467 83.9116L89.1448 83.5912C88.1983 83.8679 87.1062 84.2174 86.2325 84.5377L86.349 84.8726C86.8878 84.8144 87.0479 84.9018 87.3537 85.9356ZM98.1 83.5039L98.4786 87.6247C98.566 88.7023 98.464 88.8624 97.9398 89.0226L97.9835 89.3866C98.8863 89.2702 99.993 89.1682 101.187 89.0954C102.235 89.0372 103.196 88.9935 104.289 89.0372L104.958 87.1151L104.638 86.9986C104.274 87.4063 103.925 87.7412 103.502 87.9888C103.109 88.2072 102.672 88.3382 101.42 88.411C100.561 88.4547 100.444 88.4402 100.357 88.3528C100.27 88.2654 100.226 88.1052 100.197 87.8868C100.153 87.581 100.051 86.4453 99.9493 85.2512C101.07 85.1347 101.551 85.1347 101.959 85.2512C102.294 85.3677 102.396 85.5716 102.483 85.8482L102.847 85.8337L102.789 83.6058L102.425 83.6204C102.366 83.9116 102.279 84.1009 101.93 84.2756C101.711 84.3775 101.333 84.4504 99.891 84.5377C99.8328 83.9116 99.7891 83.3 99.76 82.8195C99.7454 82.6011 99.7745 82.4846 99.8474 82.4118C99.9202 82.3244 99.9784 82.3098 100.75 82.2661C102.439 82.1642 103.167 82.2953 104.187 83.0525L104.449 82.834L103.779 81.4944C102.847 81.4798 101.828 81.5235 100.765 81.5818C99.76 81.64 98.231 81.7711 97.2991 81.8876L97.3282 82.237C97.8816 82.2953 98.0126 82.4263 98.1 83.5039ZM107.769 88.8479C107.186 88.644 106.997 88.28 107.419 87.6393L108.002 86.7219L109.458 86.8967C109.967 86.9695 110.492 87.0423 111.016 87.1442L111.365 88.2509C111.54 88.7896 111.394 89.1828 110.899 89.241L110.841 89.5905C111.788 89.7507 112.836 89.9691 113.914 90.2166L114.001 89.8672C113.608 89.6196 113.491 89.3284 113.171 88.3819L111.176 82.4991C111.045 82.0914 110.987 82.004 110.739 81.9749C110.069 81.8876 109.429 81.8002 108.817 81.7419L108.788 82.0769C109.036 82.1351 109.21 82.2225 109.385 82.3972C109.647 82.6739 109.676 82.7904 109.531 83.0088L106.648 87.4063C106.109 88.2217 105.716 88.5712 105.293 88.6731L105.279 89.0226C106.08 89.0517 106.88 89.11 107.71 89.1828L107.769 88.8479ZM109.938 83.766L110.768 86.4016C110.375 86.3579 109.982 86.3142 109.574 86.256C109.181 86.1977 108.817 86.1395 108.424 86.0812L109.938 83.766ZM115.676 90.3914C116.404 90.6244 116.651 91.1631 118.02 91.6291C119.345 92.0659 121.092 91.8475 121.617 90.2749C122.155 88.6586 120.772 87.814 119.476 87.0714C118.093 86.2705 117.306 85.8774 117.598 84.9891C117.758 84.5086 118.398 84.1591 119.418 84.494C120.626 84.8872 121.165 85.7463 121.631 86.8675L121.981 86.8384L122.053 84.8872L121.879 84.7853C121.806 84.7998 121.675 84.8144 121.544 84.7707C120.976 84.5814 120.757 84.1882 119.665 83.8388C118.195 83.3437 116.637 83.7368 116.185 85.1202C115.646 86.7219 117.001 87.581 118.282 88.3091C119.68 89.0954 120.495 89.5031 120.19 90.4205C120.015 90.9593 119.316 91.3233 118.267 90.9738C116.826 90.4933 116.054 89.5323 115.588 88.1052L115.239 88.1198L114.991 90.2603L115.151 90.3623C115.311 90.3331 115.486 90.3331 115.676 90.3914ZM125.694 94.5414C125.286 94.221 125.213 93.9589 125.504 93.3036C125.752 92.7794 127.033 90.3623 127.805 89.0081C128.082 88.513 128.213 88.4838 128.621 88.7459C129.232 89.1391 129.654 89.8672 129.873 91.0612L130.208 91.1049L130.659 89.1682C129.698 88.5712 128.693 88.0033 127.674 87.4645C126.64 86.9258 125.621 86.4161 124.587 85.9502L123.233 87.4063L123.466 87.6684C124.573 87.1879 125.417 87.1296 126.072 87.4063C126.524 87.5956 126.567 87.7267 126.305 88.2217C125.606 89.6196 124.325 92.0368 124.034 92.5319C123.67 93.1435 123.408 93.2308 122.913 93.0707L122.752 93.391C123.641 93.8279 124.674 94.3812 125.534 94.8617L125.694 94.5414ZM129.552 95.4005C128.912 96.2742 128.722 96.3178 128.227 96.0849L128.024 96.3906C128.781 96.8857 129.684 97.541 130.615 98.2836C131.431 98.9243 132.203 99.5359 132.989 100.279L134.765 99.2738L134.605 98.968C134.066 99.0263 133.586 99.0554 133.091 98.9534C132.654 98.8661 132.246 98.6768 131.256 97.905C130.572 97.3663 130.514 97.2789 130.499 97.1478C130.484 97.0313 130.572 96.8712 130.688 96.6964C130.863 96.4343 131.533 95.5024 132.246 94.5559C133.164 95.2112 133.528 95.5315 133.761 95.881C133.935 96.1868 133.877 96.4052 133.761 96.6673L134.052 96.9003L135.45 95.2257L135.159 94.9928C134.926 95.1675 134.736 95.2549 134.358 95.1529C134.125 95.0947 133.804 94.8908 132.654 94.0172C133.033 93.5075 133.397 93.0124 133.688 92.6338C133.819 92.4591 133.921 92.4008 134.023 92.3863C134.139 92.3717 134.198 92.4008 134.795 92.8668C136.134 93.9152 136.6 94.4831 136.862 95.7208L137.197 95.7354L137.576 94.2938C136.877 93.6677 136.091 93.027 135.261 92.3717C134.474 91.7601 133.222 90.8428 132.45 90.3186L132.246 90.5952C132.625 91.0175 132.639 91.1923 131.999 92.0659L129.552 95.4005ZM134.664 101.356L134.416 101.618C135.028 102.23 135.726 102.958 136.425 103.744L136.688 103.511C136.396 103.045 136.411 102.87 137.212 102.142L138.202 101.254C138.377 101.429 138.551 101.618 138.726 101.807C138.013 104.429 137.634 105.579 138.61 106.744C139.017 107.239 139.571 107.428 140.095 107.341L140.109 106.977C139.891 106.933 139.745 106.875 139.6 106.686C139.061 106.045 139.658 104.807 140.124 103.118C141.172 103.948 142.192 104.035 142.993 103.351C143.939 102.536 144.187 101.225 142.41 99.1864C141.697 98.3564 140.473 97.075 139.876 96.478L139.614 96.711C139.906 97.1915 139.891 97.3663 139.09 98.1089L136.061 100.934C135.304 101.662 135.115 101.676 134.664 101.356ZM141.041 98.7496C141.274 98.9826 141.566 99.2592 141.813 99.5505C142.701 100.584 142.643 101.443 141.886 102.099C141.172 102.725 140.401 102.652 139.614 101.793C139.294 101.458 139.017 101.109 138.755 100.788L141.041 98.7496ZM140.241 108.098L139.949 108.302C140.357 108.928 140.765 109.54 141.143 110.18L141.449 110.006C141.333 109.525 141.507 109.074 142.556 108.433L145.41 106.729L143.167 113.908L143.371 114.33L148.191 111.884C149.298 111.331 149.72 111.403 150.084 111.767L150.404 111.622C150.099 110.937 149.764 110.238 149.414 109.583L149.094 109.743C149.181 110.238 149.021 110.588 147.856 111.2L145.322 112.525L147.245 106.54C147.405 106.059 147.346 105.914 147.274 105.783C147.084 105.448 146.415 104.429 146.08 103.948L145.774 104.123C145.876 104.356 145.89 104.618 145.672 105.331C145.614 105.535 145.512 105.754 145.235 105.914L142.133 107.807C141.1 108.447 140.619 108.404 140.241 108.098Z" fill="black"></path>
    </g>
  </g>
  <defs>
    <clipPath id="clip0_7289_9286">
      <rect width="473" height="270" fill="white"></rect>
    </clipPath>
    <clipPath id="clip1_7289_9286">
      <rect width="369.858" height="120" fill="white" transform="translate(46 75)"></rect>
    </clipPath>
  </defs>
</svg>
